<svg id="my-svg" width="100%" xmlns="http://www.w3.org/2000/svg" xmlns:xlink="http://www.w3.org/1999/xlink" class="flowchart" style="max-width: 3022.78px; background-color: white;" viewBox="0 0 3022.78125 1431.5247802734375" role="graphics-document document" aria-roledescription="flowchart-v2"><style>#my-svg{font-family:"trebuchet ms",verdana,arial,sans-serif;font-size:16px;fill:#333;}@keyframes edge-animation-frame{from{stroke-dashoffset:0;}}@keyframes dash{to{stroke-dashoffset:0;}}#my-svg .edge-animation-slow{stroke-dasharray:9,5!important;stroke-dashoffset:900;animation:dash 50s linear infinite;stroke-linecap:round;}#my-svg .edge-animation-fast{stroke-dasharray:9,5!important;stroke-dashoffset:900;animation:dash 20s linear infinite;stroke-linecap:round;}#my-svg .error-icon{fill:#552222;}#my-svg .error-text{fill:#552222;stroke:#552222;}#my-svg .edge-thickness-normal{stroke-width:1px;}#my-svg .edge-thickness-thick{stroke-width:3.5px;}#my-svg .edge-pattern-solid{stroke-dasharray:0;}#my-svg .edge-thickness-invisible{stroke-width:0;fill:none;}#my-svg .edge-pattern-dashed{stroke-dasharray:3;}#my-svg .edge-pattern-dotted{stroke-dasharray:2;}#my-svg .marker{fill:#333333;stroke:#333333;}#my-svg .marker.cross{stroke:#333333;}#my-svg svg{font-family:"trebuchet ms",verdana,arial,sans-serif;font-size:16px;}#my-svg p{margin:0;}#my-svg .label{font-family:"trebuchet ms",verdana,arial,sans-serif;color:#333;}#my-svg .cluster-label text{fill:#333;}#my-svg .cluster-label span{color:#333;}#my-svg .cluster-label span p{background-color:transparent;}#my-svg .label text,#my-svg span{fill:#333;color:#333;}#my-svg .node rect,#my-svg .node circle,#my-svg .node ellipse,#my-svg .node polygon,#my-svg .node path{fill:#ECECFF;stroke:#9370DB;stroke-width:1px;}#my-svg .rough-node .label text,#my-svg .node .label text,#my-svg .image-shape .label,#my-svg .icon-shape .label{text-anchor:middle;}#my-svg .node .katex path{fill:#000;stroke:#000;stroke-width:1px;}#my-svg .rough-node .label,#my-svg .node .label,#my-svg .image-shape .label,#my-svg .icon-shape .label{text-align:center;}#my-svg .node.clickable{cursor:pointer;}#my-svg .root .anchor path{fill:#333333!important;stroke-width:0;stroke:#333333;}#my-svg .arrowheadPath{fill:#333333;}#my-svg .edgePath .path{stroke:#333333;stroke-width:1px;}#my-svg .flowchart-link{stroke:#333333;fill:none;}#my-svg .edgeLabel{background-color:rgba(232,232,232, 0.8);text-align:center;}#my-svg .edgeLabel p{background-color:rgba(232,232,232, 0.8);}#my-svg .edgeLabel rect{opacity:0.5;background-color:rgba(232,232,232, 0.8);fill:rgba(232,232,232, 0.8);}#my-svg .labelBkg{background-color:rgba(232, 232, 232, 0.5);}#my-svg .cluster rect{fill:#ffffde;stroke:#aaaa33;stroke-width:1px;}#my-svg .cluster text{fill:#333;}#my-svg .cluster span{color:#333;}#my-svg div.mermaidTooltip{position:absolute;text-align:center;max-width:200px;padding:2px;font-family:"trebuchet ms",verdana,arial,sans-serif;font-size:12px;background:hsl(80, 100%, 96.2745098039%);border:1px solid #aaaa33;border-radius:2px;pointer-events:none;z-index:100;}#my-svg .flowchartTitleText{text-anchor:middle;font-size:18px;fill:#333;}#my-svg rect.text{fill:none;stroke-width:0;}#my-svg .icon-shape,#my-svg .image-shape{background-color:rgba(232,232,232, 0.8);text-align:center;}#my-svg .icon-shape p,#my-svg .image-shape p{background-color:rgba(232,232,232, 0.8);padding:2px;}#my-svg .icon-shape .label rect,#my-svg .image-shape .label rect{opacity:0.5;background-color:rgba(232,232,232, 0.8);fill:rgba(232,232,232, 0.8);}#my-svg .label-icon{display:inline-block;height:1em;overflow:visible;vertical-align:-0.125em;}#my-svg .node .label-icon path{fill:currentColor;stroke:revert;stroke-width:revert;}#my-svg .node .neo-node{stroke:#9370DB;}#my-svg [data-look="neo"].node rect,#my-svg [data-look="neo"].cluster rect,#my-svg [data-look="neo"].node polygon{stroke:#9370DB;filter:drop-shadow(1px 2px 2px rgba(185, 185, 185, 1));}#my-svg [data-look="neo"].node path{stroke:#9370DB;stroke-width:1px;}#my-svg [data-look="neo"].node .outer-path{filter:drop-shadow(1px 2px 2px rgba(185, 185, 185, 1));}#my-svg [data-look="neo"].node .neo-line path{stroke:#9370DB;filter:none;}#my-svg [data-look="neo"].node circle{stroke:#9370DB;filter:drop-shadow(1px 2px 2px rgba(185, 185, 185, 1));}#my-svg [data-look="neo"].node circle .state-start{fill:#000000;}#my-svg [data-look="neo"].icon-shape .icon{fill:#9370DB;filter:drop-shadow(1px 2px 2px rgba(185, 185, 185, 1));}#my-svg [data-look="neo"].icon-shape .icon-neo path{stroke:#9370DB;filter:drop-shadow(1px 2px 2px rgba(185, 185, 185, 1));}#my-svg :root{--mermaid-font-family:"trebuchet ms",verdana,arial,sans-serif;}</style><g><marker id="my-svg_flowchart-v2-pointEnd" class="marker flowchart-v2" viewBox="0 0 10 10" refX="5" refY="5" markerUnits="userSpaceOnUse" markerWidth="8" markerHeight="8" orient="auto"><path d="M 0 0 L 10 5 L 0 10 z" class="arrowMarkerPath" style="stroke-width: 1; stroke-dasharray: 1, 0;"/></marker><marker id="my-svg_flowchart-v2-pointStart" class="marker flowchart-v2" viewBox="0 0 10 10" refX="4.5" refY="5" markerUnits="userSpaceOnUse" markerWidth="8" markerHeight="8" orient="auto"><path d="M 0 5 L 10 10 L 10 0 z" class="arrowMarkerPath" style="stroke-width: 1; stroke-dasharray: 1, 0;"/></marker><marker id="my-svg_flowchart-v2-pointEnd-margin" class="marker flowchart-v2" viewBox="0 0 11.5 14" refX="11.5" refY="7" markerUnits="userSpaceOnUse" markerWidth="10.5" markerHeight="14" orient="auto"><path d="M 0 0 L 11.5 7 L 0 14 z" class="arrowMarkerPath" style="stroke-width: 0; stroke-dasharray: 1, 0;"/></marker><marker id="my-svg_flowchart-v2-pointStart-margin" class="marker flowchart-v2" viewBox="0 0 11.5 14" refX="1" refY="7" markerUnits="userSpaceOnUse" markerWidth="11.5" markerHeight="14" orient="auto"><polygon points="0,7 11.5,14 11.5,0" class="arrowMarkerPath" style="stroke-width: 0; stroke-dasharray: 1, 0;"/></marker><marker id="my-svg_flowchart-v2-circleEnd" class="marker flowchart-v2" viewBox="0 0 10 10" refX="11" refY="5" markerUnits="userSpaceOnUse" markerWidth="11" markerHeight="11" orient="auto"><circle cx="5" cy="5" r="5" class="arrowMarkerPath" style="stroke-width: 1; stroke-dasharray: 1, 0;"/></marker><marker id="my-svg_flowchart-v2-circleStart" class="marker flowchart-v2" viewBox="0 0 10 10" refX="-1" refY="5" markerUnits="userSpaceOnUse" markerWidth="11" markerHeight="11" orient="auto"><circle cx="5" cy="5" r="5" class="arrowMarkerPath" style="stroke-width: 1; stroke-dasharray: 1, 0;"/></marker><marker id="my-svg_flowchart-v2-circleEnd-margin" class="marker flowchart-v2" viewBox="0 0 10 10" refY="5" refX="12.25" markerUnits="userSpaceOnUse" markerWidth="14" markerHeight="14" orient="auto"><circle cx="5" cy="5" r="5" class="arrowMarkerPath" style="stroke-width: 0; stroke-dasharray: 1, 0;"/></marker><marker id="my-svg_flowchart-v2-circleStart-margin" class="marker flowchart-v2" viewBox="0 0 10 10" refX="-2" refY="5" markerUnits="userSpaceOnUse" markerWidth="14" markerHeight="14" orient="auto"><circle cx="5" cy="5" r="5" class="arrowMarkerPath" style="stroke-width: 0; stroke-dasharray: 1, 0;"/></marker><marker id="my-svg_flowchart-v2-crossEnd" class="marker cross flowchart-v2" viewBox="0 0 11 11" refX="12" refY="5.2" markerUnits="userSpaceOnUse" markerWidth="11" markerHeight="11" orient="auto"><path d="M 1,1 l 9,9 M 10,1 l -9,9" class="arrowMarkerPath" style="stroke-width: 2; stroke-dasharray: 1, 0;"/></marker><marker id="my-svg_flowchart-v2-crossStart" class="marker cross flowchart-v2" viewBox="0 0 11 11" refX="-1" refY="5.2" markerUnits="userSpaceOnUse" markerWidth="11" markerHeight="11" orient="auto"><path d="M 1,1 l 9,9 M 10,1 l -9,9" class="arrowMarkerPath" style="stroke-width: 2; stroke-dasharray: 1, 0;"/></marker><marker id="my-svg_flowchart-v2-crossEnd-margin" class="marker cross flowchart-v2" viewBox="0 0 15 15" refX="17.7" refY="7.5" markerUnits="userSpaceOnUse" markerWidth="12" markerHeight="12" orient="auto"><path d="M 1,1 L 14,14 M 1,14 L 14,1" class="arrowMarkerPath" style="stroke-width: 2.5;"/></marker><marker id="my-svg_flowchart-v2-crossStart-margin" class="marker cross flowchart-v2" viewBox="0 0 15 15" refX="-3.5" refY="7.5" markerUnits="userSpaceOnUse" markerWidth="12" markerHeight="12" orient="auto"><path d="M 1,1 L 14,14 M 1,14 L 14,1" class="arrowMarkerPath" style="stroke-width: 2.5; stroke-dasharray: 1, 0;"/></marker><g class="root"><g class="clusters"><g class="cluster" id="my-svg-tabs" data-look="classic"><rect style="" x="645.34375" y="929.734375" width="2353.734375" height="104"/><g class="cluster-label" transform="translate(1702.1875, 929.734375)"><foreignObject width="240.046875" height="24"><div xmlns="http://www.w3.org/1999/xhtml" style="display: table-cell; white-space: nowrap; line-height: 1.5;"><span class="nodeLabel"><p>AppTabsNavigator (barra inferior)</p></span></div></foreignObject></g></g></g><g class="edgePaths"><path d="M876.988,47.5L876.905,51.583C876.822,55.667,876.655,63.833,876.572,71.417C876.488,79,876.488,86,876.488,89.5L876.488,93" id="my-svg-L_start_providers_0" class="edge-thickness-normal edge-pattern-solid edge-thickness-normal edge-pattern-solid flowchart-link" style=";" data-edge="true" data-et="edge" data-id="L_start_providers_0" data-points="W3sieCI6ODc2Ljk4ODI4MTI1LCJ5Ijo0Ny41fSx7IngiOjg3Ni40ODgyODEyNSwieSI6NzJ9LHsieCI6ODc2LjQ4ODI4MTI1LCJ5Ijo5N31d" data-look="classic" marker-end="url(#my-svg_flowchart-v2-pointEnd)"/><path d="M876.488,247L876.488,251.167C876.488,255.333,876.488,263.667,876.488,271.333C876.488,279,876.488,286,876.488,289.5L876.488,293" id="my-svg-L_providers_authCheck_0" class="edge-thickness-normal edge-pattern-solid edge-thickness-normal edge-pattern-solid flowchart-link" style=";" data-edge="true" data-et="edge" data-id="L_providers_authCheck_0" data-points="W3sieCI6ODc2LjQ4ODI4MTI1LCJ5IjoyNDd9LHsieCI6ODc2LjQ4ODI4MTI1LCJ5IjoyNzJ9LHsieCI6ODc2LjQ4ODI4MTI1LCJ5IjoyOTd9XQ==" data-look="classic" marker-end="url(#my-svg_flowchart-v2-pointEnd)"/><path d="M904.053,421.764L910.156,432.524C916.259,443.285,928.465,464.807,945.832,487.778C963.199,510.749,985.725,535.17,996.988,547.381L1008.252,559.591" id="my-svg-L_authCheck_authStack_0" class="edge-thickness-normal edge-pattern-solid edge-thickness-normal edge-pattern-solid flowchart-link" style=";" data-edge="true" data-et="edge" data-id="L_authCheck_authStack_0" data-points="W3sieCI6OTA0LjA1MjY4OTc2Mzg1NDMsInkiOjQyMS43NjM3MTY0ODYxNDU2NX0seyJ4Ijo5NDAuNjcxODc1LCJ5Ijo0ODYuMzI4MTI1fSx7IngiOjEwMTAuOTYzODk4OTc1ODYyOSwieSI6NTYyLjUzMTI1fV0=" data-look="classic" marker-end="url(#my-svg_flowchart-v2-pointEnd)"/><path d="M1069.527,562.531L1072.395,549.831C1075.264,537.13,1081.001,511.729,1057.667,484.926C1034.334,458.122,981.929,429.916,955.727,415.813L929.524,401.71" id="my-svg-L_authStack_authCheck_0" class="edge-thickness-normal edge-pattern-solid edge-thickness-normal edge-pattern-solid flowchart-link" style=";" data-edge="true" data-et="edge" data-id="L_authStack_authCheck_0" data-points="W3sieCI6MTA2OS41MjY4MjEyMjEyODczLCJ5Ijo1NjIuNTMxMjV9LHsieCI6MTA4Ni43MzgyODEyNSwieSI6NDg2LjMyODEyNX0seyJ4Ijo5MjYuMDAyMTg5MjYyNjU3OSwieSI6Mzk5LjgxNDIxNjk4NzM0MjF9XQ==" data-look="classic" marker-end="url(#my-svg_flowchart-v2-pointEnd)"/><path d="M1058.008,664.531L1058.008,677.232C1058.008,689.932,1058.008,715.333,1058.008,733.534C1058.008,751.734,1058.008,762.734,1058.008,768.234L1058.008,773.734" id="my-svg-L_authStack_guest_0" class="edge-thickness-normal edge-pattern-solid edge-thickness-normal edge-pattern-solid flowchart-link" style=";" data-edge="true" data-et="edge" data-id="L_authStack_guest_0" data-points="W3sieCI6MTA1OC4wMDc4MTI1LCJ5Ijo2NjQuNTMxMjV9LHsieCI6MTA1OC4wMDc4MTI1LCJ5Ijo3NDAuNzM0Mzc1fSx7IngiOjEwNTguMDA3ODEyNSwieSI6Nzc3LjczNDM3NX1d" data-look="classic" marker-end="url(#my-svg_flowchart-v2-pointEnd)"/><path d="M830.768,403.607L810.062,417.394C789.357,431.181,747.946,458.755,727.241,478.041C706.535,497.328,706.535,508.328,706.535,513.828L706.535,519.328" id="my-svg-L_authCheck_onboarding_0" class="edge-thickness-normal edge-pattern-solid edge-thickness-normal edge-pattern-solid flowchart-link" style=";" data-edge="true" data-et="edge" data-id="L_authCheck_onboarding_0" data-points="W3sieCI6ODMwLjc2NzU2NTU2NzMxLCJ5Ijo0MDMuNjA3NDA5MzE3MzEwMX0seyJ4Ijo3MDYuNTM1MTU2MjUsInkiOjQ4Ni4zMjgxMjV9LHsieCI6NzA2LjUzNTE1NjI1LCJ5Ijo1MjMuMzI4MTI1fV0=" data-look="classic" marker-end="url(#my-svg_flowchart-v2-pointEnd)"/><path d="M744.128,666.141L753.012,678.573C761.895,691.006,779.663,715.87,788.546,737.802C797.43,759.734,797.43,778.734,797.43,788.234L797.43,797.734" id="my-svg-L_onboarding_onb_0" class="edge-thickness-normal edge-pattern-solid edge-thickness-normal edge-pattern-solid flowchart-link" style=";" data-edge="true" data-et="edge" data-id="L_onboarding_onb_0" data-points="W3sieCI6NzQ0LjEyODI3MzUwMzY4NTEsInkiOjY2Ni4xNDEyNTc3NDYzMTQ5fSx7IngiOjc5Ny40Mjk2ODc1LCJ5Ijo3NDAuNzM0Mzc1fSx7IngiOjc5Ny40Mjk2ODc1LCJ5Ijo4MDEuNzM0Mzc1fV0=" data-look="classic" marker-end="url(#my-svg_flowchart-v2-pointEnd)"/><path d="M2342.703,1008.734L2342.703,1012.901C2342.703,1017.068,2342.703,1025.401,2342.703,1035.734C2342.703,1046.068,2342.703,1058.401,2342.703,1087.884C2342.703,1117.366,2342.703,1163.998,2342.703,1187.314L2342.703,1210.63" id="my-svg-L_classroom_grupos_0" class="edge-thickness-normal edge-pattern-solid edge-thickness-normal edge-pattern-solid flowchart-link" style=";" data-edge="true" data-et="edge" data-id="L_classroom_grupos_0" data-points="W3sieCI6MjM0Mi43MDMxMjUsInkiOjEwMDguNzM0Mzc1fSx7IngiOjIzNDIuNzAzMTI1LCJ5IjoxMDMzLjczNDM3NX0seyJ4IjoyMzQyLjcwMzEyNSwieSI6MTA3MC43MzQzNzV9LHsieCI6MjM0Mi43MDMxMjUsInkiOjEyMTQuNjI5NTc3NjM2NzE4OH1d" data-look="classic" marker-end="url(#my-svg_flowchart-v2-pointEnd)"/><path d="M1836.071,1008.734L1824.536,1012.901C1813.001,1017.068,1789.93,1025.401,1778.395,1035.734C1766.859,1046.068,1766.859,1058.401,1766.859,1089.884C1766.859,1121.366,1766.859,1171.998,1766.859,1197.314L1766.859,1222.63" id="my-svg-L_recursos_plan_0" class="edge-thickness-normal edge-pattern-solid edge-thickness-normal edge-pattern-solid flowchart-link" style=";" data-edge="true" data-et="edge" data-id="L_recursos_plan_0" data-points="W3sieCI6MTgzNi4wNzEzNjQxODI2OTI0LCJ5IjoxMDA4LjczNDM3NX0seyJ4IjoxNzY2Ljg1OTM3NSwieSI6MTAzMy43MzQzNzV9LHsieCI6MTc2Ni44NTkzNzUsInkiOjEwNzAuNzM0Mzc1fSx7IngiOjE3NjYuODU5Mzc1LCJ5IjoxMjI2LjYyOTU3NzYzNjcxODh9XQ==" data-look="classic" marker-end="url(#my-svg_flowchart-v2-pointEnd)"/><path d="M1985.569,1008.734L1997.105,1012.901C2008.64,1017.068,2031.711,1025.401,2043.246,1035.734C2054.781,1046.068,2054.781,1058.401,2054.781,1091.884C2054.781,1125.366,2054.781,1179.998,2054.781,1207.314L2054.781,1234.63" id="my-svg-L_recursos_biblio_0" class="edge-thickness-normal edge-pattern-solid edge-thickness-normal edge-pattern-solid flowchart-link" style=";" data-edge="true" data-et="edge" data-id="L_recursos_biblio_0" data-points="W3sieCI6MTk4NS41NjkyNjA4MTczMDc2LCJ5IjoxMDA4LjczNDM3NX0seyJ4IjoyMDU0Ljc4MTI1LCJ5IjoxMDMzLjczNDM3NX0seyJ4IjoyMDU0Ljc4MTI1LCJ5IjoxMDcwLjczNDM3NX0seyJ4IjoyMDU0Ljc4MTI1LCJ5IjoxMjM4LjYyOTU3NzYzNjcxODh9XQ==" data-look="classic" marker-end="url(#my-svg_flowchart-v2-pointEnd)"/><path d="M2613.742,1008.734L2613.742,1012.901C2613.742,1017.068,2613.742,1025.401,2613.742,1035.734C2613.742,1046.068,2613.742,1058.401,2613.742,1091.884C2613.742,1125.366,2613.742,1179.998,2613.742,1207.314L2613.742,1234.63" id="my-svg-L_social_chat_0" class="edge-thickness-normal edge-pattern-solid edge-thickness-normal edge-pattern-solid flowchart-link" style=";" data-edge="true" data-et="edge" data-id="L_social_chat_0" data-points="W3sieCI6MjYxMy43NDIxODc1LCJ5IjoxMDA4LjczNDM3NX0seyJ4IjoyNjEzLjc0MjE4NzUsInkiOjEwMzMuNzM0Mzc1fSx7IngiOjI2MTMuNzQyMTg3NSwieSI6MTA3MC43MzQzNzV9LHsieCI6MjYxMy43NDIxODc1LCJ5IjoxMjM4LjYyOTU3NzYzNjcxODh9XQ==" data-look="classic" marker-end="url(#my-svg_flowchart-v2-pointEnd)"/><path d="M2884.781,1008.734L2884.781,1012.901C2884.781,1017.068,2884.781,1025.401,2884.781,1035.734C2884.781,1046.068,2884.781,1058.401,2884.781,1089.884C2884.781,1121.366,2884.781,1171.998,2884.781,1197.314L2884.781,1222.63" id="my-svg-L_config_cuenta_0" class="edge-thickness-normal edge-pattern-solid edge-thickness-normal edge-pattern-solid flowchart-link" style=";" data-edge="true" data-et="edge" data-id="L_config_cuenta_0" data-points="W3sieCI6Mjg4NC43ODEyNSwieSI6MTAwOC43MzQzNzV9LHsieCI6Mjg4NC43ODEyNSwieSI6MTAzMy43MzQzNzV9LHsieCI6Mjg4NC43ODEyNSwieSI6MTA3MC43MzQzNzV9LHsieCI6Mjg4NC43ODEyNSwieSI6MTIyNi42Mjk1Nzc2MzY3MTg4fV0=" data-look="classic" marker-end="url(#my-svg_flowchart-v2-pointEnd)"/><path d="M691.508,703.734L690.48,709.901C689.453,716.068,687.398,728.401,686.371,749.234C685.344,770.068,685.344,799.401,685.344,826.734C685.344,854.068,685.344,879.401,685.344,895.568C685.344,911.734,685.344,918.734,685.344,922.234L685.344,925.734" id="my-svg-L_onboarding_tabs_0" class="edge-thickness-normal edge-pattern-solid edge-thickness-normal edge-pattern-solid flowchart-link" style=";" data-edge="true" data-et="edge" data-id="L_onboarding_tabs_0" data-points="W3sieCI6NjkzLjY1Mzc0NDQ0MzI5MjgsInkiOjY5MC44NTI5NjMxOTMyOTI4fSx7IngiOjY4NS4zNDM3NSwieSI6NzQwLjczNDM3NX0seyJ4Ijo2ODUuMzQzNzUsInkiOjgyOC43MzQzNzV9LHsieCI6Njg1LjM0Mzc1LCJ5Ijo5MDQuNzM0Mzc1fSx7IngiOjY4NS4zNDM3NSwieSI6OTI5LjczNDM3NX0seyJ4Ijo3NTAuMDQ2ODc1LCJ5Ijo5NTkuNzUyMDc5MDQ5NjI3MX1d" data-look="classic" marker-end="url(#my-svg_flowchart-v2-pointEnd)"/><path d="M797.43,855.734L797.43,863.901C797.43,872.068,797.43,888.401,797.43,900.068C797.43,911.734,797.43,918.734,797.43,922.234L797.43,925.734" id="my-svg-L_onb_tabs_0" class="edge-thickness-normal edge-pattern-solid edge-thickness-normal edge-pattern-solid flowchart-link" style=";" data-edge="true" data-et="edge" data-id="L_onb_tabs_0" data-points="W3sieCI6Nzk3LjQyOTY4NzUsInkiOjg1NS43MzQzNzV9LHsieCI6Nzk3LjQyOTY4NzUsInkiOjkwNC43MzQzNzV9LHsieCI6Nzk3LjQyOTY4NzUsInkiOjkyOS43MzQzNzV9LHsieCI6Nzk3LjQyOTY4NzUsInkiOjk1NC43MzQzNzV9XQ==" data-look="classic" marker-end="url(#my-svg_flowchart-v2-pointEnd)"/><path d="M1058.008,879.734L1058.008,883.901C1058.008,888.068,1058.008,896.401,1058.008,904.068C1058.008,911.734,1058.008,918.734,1058.008,922.234L1058.008,925.734" id="my-svg-L_guest_tabs_0" class="edge-thickness-normal edge-pattern-solid edge-thickness-normal edge-pattern-solid flowchart-link" style=";" data-edge="true" data-et="edge" data-id="L_guest_tabs_0" data-points="W3sieCI6MTA1OC4wMDc4MTI1LCJ5Ijo4NzkuNzM0Mzc1fSx7IngiOjEwNTguMDA3ODEyNSwieSI6OTA0LjczNDM3NX0seyJ4IjoxMDU4LjAwNzgxMjUsInkiOjkyOS43MzQzNzV9LHsieCI6ODQ0LjgxMjUsInkiOjk3Mi4yNzg4Mzc0MzMyOTE0fV0=" data-look="classic" marker-end="url(#my-svg_flowchart-v2-pointEnd)"/><path d="M797.43,1033.734L797.43,1039.901C797.43,1046.068,797.43,1058.401,797.43,1070.068C797.43,1081.734,797.43,1092.734,797.43,1098.234L797.43,1103.734" id="my-svg-L_tabs_mvvm_0" class="edge-thickness-normal edge-pattern-dotted edge-thickness-normal edge-pattern-solid flowchart-link" style=";" data-edge="true" data-et="edge" data-id="L_tabs_mvvm_0" data-points="W3sieCI6Nzk3LjQyOTY4NzUsInkiOjEwMDguNzM0Mzc1fSx7IngiOjc5Ny40Mjk2ODc1LCJ5IjoxMDMzLjczNDM3NX0seyJ4Ijo3OTcuNDI5Njg3NSwieSI6MTA3MC43MzQzNzV9LHsieCI6Nzk3LjQyOTY4NzUsInkiOjExMDcuNzM0Mzc1fV0=" data-look="classic" marker-end="url(#my-svg_flowchart-v2-pointEnd)"/></g><g class="edgeLabels"><g class="edgeLabel"><g class="label" data-id="L_start_providers_0" transform="translate(0, 0)"><foreignObject width="0" height="0"><div xmlns="http://www.w3.org/1999/xhtml" class="labelBkg" style="display: table-cell; white-space: nowrap; line-height: 1.5; max-width: 200px; text-align: center;"><span class="edgeLabel"></span></div></foreignObject></g></g><g class="edgeLabel"><g class="label" data-id="L_providers_authCheck_0" transform="translate(0, 0)"><foreignObject width="0" height="0"><div xmlns="http://www.w3.org/1999/xhtml" class="labelBkg" style="display: table-cell; white-space: nowrap; line-height: 1.5; max-width: 200px; text-align: center;"><span class="edgeLabel"></span></div></foreignObject></g></g><g class="edgeLabel" transform="translate(950.65435, 497.15006)"><g class="label" data-id="L_authCheck_authStack_0" transform="translate(-9.3984375, -12)"><foreignObject width="18.796875" height="24"><div xmlns="http://www.w3.org/1999/xhtml" class="labelBkg" style="display: table-cell; white-space: nowrap; line-height: 1.5; max-width: 200px; text-align: center;"><span class="edgeLabel"><p>No</p></span></div></foreignObject></g></g><g class="edgeLabel" transform="translate(1040.76585, 461.58412)"><g class="label" data-id="L_authStack_authCheck_0" transform="translate(-28.0625, -12)"><foreignObject width="56.125" height="24"><div xmlns="http://www.w3.org/1999/xhtml" class="labelBkg" style="display: table-cell; white-space: nowrap; line-height: 1.5; max-width: 200px; text-align: center;"><span class="edgeLabel"><p>login ok</p></span></div></foreignObject></g></g><g class="edgeLabel" transform="translate(1058.0078125, 740.734375)"><g class="label" data-id="L_authStack_guest_0" transform="translate(-87.1171875, -12)"><foreignObject width="174.234375" height="24"><div xmlns="http://www.w3.org/1999/xhtml" class="labelBkg" style="display: table-cell; white-space: nowrap; line-height: 1.5; max-width: 200px; text-align: center;"><span class="edgeLabel"><p>continuar como invitado</p></span></div></foreignObject></g></g><g class="edgeLabel" transform="translate(706.53515625, 486.328125)"><g class="label" data-id="L_authCheck_onboarding_0" transform="translate(-6.1328125, -12)"><foreignObject width="12.265625" height="24"><div xmlns="http://www.w3.org/1999/xhtml" class="labelBkg" style="display: table-cell; white-space: nowrap; line-height: 1.5; max-width: 200px; text-align: center;"><span class="edgeLabel"><p>Si</p></span></div></foreignObject></g></g><g class="edgeLabel" transform="translate(797.4296875, 740.734375)"><g class="label" data-id="L_onboarding_onb_0" transform="translate(-9.3984375, -12)"><foreignObject width="18.796875" height="24"><div xmlns="http://www.w3.org/1999/xhtml" class="labelBkg" style="display: table-cell; white-space: nowrap; line-height: 1.5; max-width: 200px; text-align: center;"><span class="edgeLabel"><p>No</p></span></div></foreignObject></g></g><g class="edgeLabel"><g class="label" data-id="L_classroom_grupos_0" transform="translate(0, 0)"><foreignObject width="0" height="0"><div xmlns="http://www.w3.org/1999/xhtml" class="labelBkg" style="display: table-cell; white-space: nowrap; line-height: 1.5; max-width: 200px; text-align: center;"><span class="edgeLabel"></span></div></foreignObject></g></g><g class="edgeLabel"><g class="label" data-id="L_recursos_plan_0" transform="translate(0, 0)"><foreignObject width="0" height="0"><div xmlns="http://www.w3.org/1999/xhtml" class="labelBkg" style="display: table-cell; white-space: nowrap; line-height: 1.5; max-width: 200px; text-align: center;"><span class="edgeLabel"></span></div></foreignObject></g></g><g class="edgeLabel"><g class="label" data-id="L_recursos_biblio_0" transform="translate(0, 0)"><foreignObject width="0" height="0"><div xmlns="http://www.w3.org/1999/xhtml" class="labelBkg" style="display: table-cell; white-space: nowrap; line-height: 1.5; max-width: 200px; text-align: center;"><span class="edgeLabel"></span></div></foreignObject></g></g><g class="edgeLabel"><g class="label" data-id="L_social_chat_0" transform="translate(0, 0)"><foreignObject width="0" height="0"><div xmlns="http://www.w3.org/1999/xhtml" class="labelBkg" style="display: table-cell; white-space: nowrap; line-height: 1.5; max-width: 200px; text-align: center;"><span class="edgeLabel"></span></div></foreignObject></g></g><g class="edgeLabel"><g class="label" data-id="L_config_cuenta_0" transform="translate(0, 0)"><foreignObject width="0" height="0"><div xmlns="http://www.w3.org/1999/xhtml" class="labelBkg" style="display: table-cell; white-space: nowrap; line-height: 1.5; max-width: 200px; text-align: center;"><span class="edgeLabel"></span></div></foreignObject></g></g><g class="edgeLabel" transform="translate(685.34375, 816.47941)"><g class="label" data-id="L_onboarding_tabs_0" transform="translate(-6.1328125, -12)"><foreignObject width="12.265625" height="24"><div xmlns="http://www.w3.org/1999/xhtml" class="labelBkg" style="display: table-cell; white-space: nowrap; line-height: 1.5; max-width: 200px; text-align: center;"><span class="edgeLabel"><p>Si</p></span></div></foreignObject></g></g><g class="edgeLabel"><g class="label" data-id="L_onb_tabs_0" transform="translate(0, 0)"><foreignObject width="0" height="0"><div xmlns="http://www.w3.org/1999/xhtml" class="labelBkg" style="display: table-cell; white-space: nowrap; line-height: 1.5; max-width: 200px; text-align: center;"><span class="edgeLabel"></span></div></foreignObject></g></g><g class="edgeLabel"><g class="label" data-id="L_guest_tabs_0" transform="translate(0, 0)"><foreignObject width="0" height="0"><div xmlns="http://www.w3.org/1999/xhtml" class="labelBkg" style="display: table-cell; white-space: nowrap; line-height: 1.5; max-width: 200px; text-align: center;"><span class="edgeLabel"></span></div></foreignObject></g></g><g class="edgeLabel" transform="translate(797.4296875, 1070.734375)"><g class="label" data-id="L_tabs_mvvm_0" transform="translate(-59.875, -12)"><foreignObject width="119.75" height="24"><div xmlns="http://www.w3.org/1999/xhtml" class="labelBkg" style="display: table-cell; white-space: nowrap; line-height: 1.5; max-width: 200px; text-align: center;"><span class="edgeLabel"><p>cada modulo usa</p></span></div></foreignObject></g></g></g><g class="nodes"><g class="root" transform="translate(0, 1099.734375)"><g class="clusters"><g class="cluster" id="my-svg-mvvm" data-look="classic"><rect style="" x="8" y="8" width="1578.859375" height="315.79042053222656"/><g class="cluster-label" transform="translate(705.0234375, 8)"><foreignObject width="184.8125" height="24"><div xmlns="http://www.w3.org/1999/xhtml" style="display: table-cell; white-space: nowrap; line-height: 1.5;"><span class="nodeLabel"><p>Patron MVVM por pantalla</p></span></div></foreignObject></g></g></g><g class="edgePaths"><path d="M247.797,178.843L254.047,178.843C260.297,178.843,272.797,178.843,284.63,178.843C296.464,178.843,307.63,178.843,313.214,178.843L318.797,178.843" id="my-svg-L_view_viewmodel_0" class="edge-thickness-normal edge-pattern-solid edge-thickness-normal edge-pattern-solid flowchart-link" style=";" data-edge="true" data-et="edge" data-id="L_view_viewmodel_0" data-points="W3sieCI6MjQ3Ljc5Njg3NSwieSI6MTc4Ljg0MjgxNTM5OTE2OTkyfSx7IngiOjI4NS4yOTY4NzUsInkiOjE3OC44NDI4MTUzOTkxNjk5Mn0seyJ4IjozMjIuNzk2ODc1LCJ5IjoxNzguODQyODE1Mzk5MTY5OTJ9XQ==" data-look="classic" marker-end="url(#my-svg_flowchart-v2-pointEnd)"/><path d="M556.766,178.843L563.016,178.843C569.266,178.843,581.766,178.843,593.599,178.843C605.432,178.843,616.599,178.843,622.182,178.843L627.766,178.843" id="my-svg-L_viewmodel_model_0" class="edge-thickness-normal edge-pattern-solid edge-thickness-normal edge-pattern-solid flowchart-link" style=";" data-edge="true" data-et="edge" data-id="L_viewmodel_model_0" data-points="W3sieCI6NTU2Ljc2NTYyNSwieSI6MTc4Ljg0MjgxNTM5OTE2OTkyfSx7IngiOjU5NC4yNjU2MjUsInkiOjE3OC44NDI4MTUzOTkxNjk5Mn0seyJ4Ijo2MzEuNzY1NjI1LCJ5IjoxNzguODQyODE1Mzk5MTY5OTJ9XQ==" data-look="classic" marker-end="url(#my-svg_flowchart-v2-pointEnd)"/><path d="M843.75,178.843L850,178.843C856.25,178.843,868.75,178.843,880.583,178.843C892.417,178.843,903.583,178.843,909.167,178.843L914.75,178.843" id="my-svg-L_model_svc_0" class="edge-thickness-normal edge-pattern-solid edge-thickness-normal edge-pattern-solid flowchart-link" style=";" data-edge="true" data-et="edge" data-id="L_model_svc_0" data-points="W3sieCI6ODQzLjc1LCJ5IjoxNzguODQyODE1Mzk5MTY5OTJ9LHsieCI6ODgxLjI1LCJ5IjoxNzguODQyODE1Mzk5MTY5OTJ9LHsieCI6OTE4Ljc1LCJ5IjoxNzguODQyODE1Mzk5MTY5OTJ9XQ==" data-look="classic" marker-end="url(#my-svg_flowchart-v2-pointEnd)"/><path d="M1178.75,130.182L1188.673,126.467C1198.596,122.753,1218.443,115.324,1244.745,111.61C1271.047,107.895,1303.805,107.895,1320.184,107.895L1336.563,107.895" id="my-svg-L_svc_persist_0" class="edge-thickness-normal edge-pattern-solid edge-thickness-normal edge-pattern-solid flowchart-link" style=";" data-edge="true" data-et="edge" data-id="L_svc_persist_0" data-points="W3sieCI6MTE3OC43NSwieSI6MTMwLjE4MTY2NTg0MTY4ODI3fSx7IngiOjEyMzguMjg5MDYyNSwieSI6MTA3Ljg5NTIxMDI2NjExMzI4fSx7IngiOjEzNDAuNTYyNSwieSI6MTA3Ljg5NTIxMDI2NjExMzI4fV0=" data-look="classic" marker-end="url(#my-svg_flowchart-v2-pointEnd)"/><path d="M1178.75,227.504L1188.673,231.218C1198.596,234.933,1218.443,242.362,1237.622,246.076C1256.802,249.79,1275.315,249.79,1284.572,249.79L1293.828,249.79" id="my-svg-L_svc_remote_0" class="edge-thickness-normal edge-pattern-solid edge-thickness-normal edge-pattern-solid flowchart-link" style=";" data-edge="true" data-et="edge" data-id="L_svc_remote_0" data-points="W3sieCI6MTE3OC43NSwieSI6MjI3LjUwMzk2NDk1NjY1MTU3fSx7IngiOjEyMzguMjg5MDYyNSwieSI6MjQ5Ljc5MDQyMDUzMjIyNjU2fSx7IngiOjEyOTcuODI4MTI1LCJ5IjoyNDkuNzkwNDIwNTMyMjI2NTZ9XQ==" data-look="classic" marker-end="url(#my-svg_flowchart-v2-pointEnd)"/></g><g class="edgeLabels"><g class="edgeLabel"><g class="label" data-id="L_view_viewmodel_0" transform="translate(0, 0)"><foreignObject width="0" height="0"><div xmlns="http://www.w3.org/1999/xhtml" class="labelBkg" style="display: table-cell; white-space: nowrap; line-height: 1.5; max-width: 200px; text-align: center;"><span class="edgeLabel"></span></div></foreignObject></g></g><g class="edgeLabel"><g class="label" data-id="L_viewmodel_model_0" transform="translate(0, 0)"><foreignObject width="0" height="0"><div xmlns="http://www.w3.org/1999/xhtml" class="labelBkg" style="display: table-cell; white-space: nowrap; line-height: 1.5; max-width: 200px; text-align: center;"><span class="edgeLabel"></span></div></foreignObject></g></g><g class="edgeLabel"><g class="label" data-id="L_model_svc_0" transform="translate(0, 0)"><foreignObject width="0" height="0"><div xmlns="http://www.w3.org/1999/xhtml" class="labelBkg" style="display: table-cell; white-space: nowrap; line-height: 1.5; max-width: 200px; text-align: center;"><span class="edgeLabel"></span></div></foreignObject></g></g><g class="edgeLabel"><g class="label" data-id="L_svc_persist_0" transform="translate(0, 0)"><foreignObject width="0" height="0"><div xmlns="http://www.w3.org/1999/xhtml" class="labelBkg" style="display: table-cell; white-space: nowrap; line-height: 1.5; max-width: 200px; text-align: center;"><span class="edgeLabel"></span></div></foreignObject></g></g><g class="edgeLabel" transform="translate(1238.2890625, 249.79042053222656)"><g class="label" data-id="L_svc_remote_0" transform="translate(-22.0390625, -12)"><foreignObject width="44.078125" height="24"><div xmlns="http://www.w3.org/1999/xhtml" class="labelBkg" style="display: table-cell; white-space: nowrap; line-height: 1.5; max-width: 200px; text-align: center;"><span class="edgeLabel"><p>online</p></span></div></foreignObject></g></g></g><g class="nodes"><g class="node default" id="my-svg-flowchart-view-35" data-look="classic" transform="translate(146.6484375, 178.84281539916992)"><rect class="basic label-container" style="" x="-101.1484375" y="-39" width="202.296875" height="78"/><g class="label" style="" transform="translate(-71.1484375, -24)"><rect/><foreignObject width="142.296875" height="48"><div xmlns="http://www.w3.org/1999/xhtml" style="display: table-cell; white-space: nowrap; line-height: 1.5; max-width: 200px; text-align: center;"><span class="nodeLabel"><p>View<br />screens/*Screen.tsx</p></span></div></foreignObject></g></g><g class="node default" id="my-svg-flowchart-viewmodel-36" data-look="classic" transform="translate(439.78125, 178.84281539916992)"><rect class="basic label-container" style="" x="-116.984375" y="-39" width="233.96875" height="78"/><g class="label" style="" transform="translate(-86.984375, -24)"><rect/><foreignObject width="173.96875" height="48"><div xmlns="http://www.w3.org/1999/xhtml" style="display: table-cell; white-space: nowrap; line-height: 1.5; max-width: 200px; text-align: center;"><span class="nodeLabel"><p>ViewModel<br />hooks/use*ViewModel.ts</p></span></div></foreignObject></g></g><g class="node default" id="my-svg-flowchart-model-38" data-look="classic" transform="translate(737.7578125, 178.84281539916992)"><rect class="basic label-container" style="" x="-105.9921875" y="-39" width="211.984375" height="78"/><g class="label" style="" transform="translate(-75.9921875, -24)"><rect/><foreignObject width="151.984375" height="48"><div xmlns="http://www.w3.org/1999/xhtml" style="display: table-cell; white-space: nowrap; line-height: 1.5; max-width: 200px; text-align: center;"><span class="nodeLabel"><p>Model<br />context/*Context.tsx</p></span></div></foreignObject></g></g><g class="node default" id="my-svg-flowchart-svc-40" data-look="classic" transform="translate(1048.75, 178.84281539916992)"><rect class="basic label-container" style="" x="-130" y="-51" width="260" height="102"/><g class="label" style="" transform="translate(-100, -36)"><rect/><foreignObject width="200" height="72"><div xmlns="http://www.w3.org/1999/xhtml" style="display: table; white-space: break-spaces; line-height: 1.5; max-width: 200px; text-align: center; width: 200px;"><span class="nodeLabel"><p>Services + Sync<br />services/, sync/, utils/apiClient</p></span></div></foreignObject></g></g><g class="node default" id="my-svg-flowchart-persist-42" data-look="classic" transform="translate(1423.59375, 107.89521026611328)"><path d="M0,14.263474339703672 a83.03125,14.263474339703672 0,0,0 166.0625,0 a83.03125,14.263474339703672 0,0,0 -166.0625,0 l0,101.26347433970368 a83.03125,14.263474339703672 0,0,0 166.0625,0 l0,-101.26347433970368" class="basic label-container outer-path" style="" transform="translate(-83.03125, -64.89521150955551)"/><g class="label" style="" transform="translate(-75.53125, -26)"><rect/><foreignObject width="151.0625" height="72"><div xmlns="http://www.w3.org/1999/xhtml" style="display: table-cell; white-space: nowrap; line-height: 1.5; max-width: 200px; text-align: center;"><span class="nodeLabel"><p>Persistencia local<br />AsyncStorage default<br />SQLite opt-in</p></span></div></foreignObject></g></g><g class="node default" id="my-svg-flowchart-remote-44" data-look="classic" transform="translate(1423.59375, 249.79042053222656)"><rect class="basic label-container" style="" x="-125.765625" y="-27" width="251.53125" height="54"/><g class="label" style="" transform="translate(-95.765625, -12)"><rect/><foreignObject width="191.53125" height="24"><div xmlns="http://www.w3.org/1999/xhtml" style="display: table-cell; white-space: nowrap; line-height: 1.5; max-width: 200px; text-align: center;"><span class="nodeLabel"><p>Backend Vercel + MongoDB</p></span></div></foreignObject></g></g></g></g><g class="node default" id="my-svg-flowchart-start-0" data-look="classic" transform="translate(876.48828125, 27.5)"><g class="basic label-container outer-path"><path d="M-47.5625 -19.5 C-14.569512829064834 -19.5, 18.42347434187033 -19.5, 47.5625 -19.5 C47.5625 -19.5, 47.5625 -19.5, 47.5625 -19.5 C47.81986914775126 -19.491746672370272, 48.077238295502525 -19.483493344740545, 48.8118692896239 -19.45993515863156 C49.10375599802489 -19.431777198917242, 49.39564270642587 -19.403619239202925, 50.056104652847864 -19.3399052695533 C50.42165535271746 -19.2808058672864, 50.78720605258705 -19.2217064650195, 51.29009325967676 -19.140403561325776 C51.760232502416486 -19.033097347115707, 52.23037174515622 -18.925791132905633, 52.50876438623539 -18.862249829261074 C52.833869885130284 -18.76576022370266, 53.15897538402517 -18.669270618144242, 53.707110251460605 -18.50658706670804 C53.99644872016789 -18.40010783560827, 54.28578718887518 -18.293628604508505, 54.8802065951478 -18.074876768247425 C55.24668621521217 -17.9126471116766, 55.613165835276554 -17.750417455105772, 56.02323291279238 -17.568892924097174 C56.46055693623375 -17.340741261187215, 56.89788095967513 -17.112589598277257, 57.13149226407678 -16.990714730406097 C57.53253795882495 -16.747598473443652, 57.93358365357312 -16.504482216481208, 58.2004305736057 -16.342718045390892 C58.45442697098123 -16.16554115390855, 58.70842336835677 -15.988364262426206, 59.22565534457871 -15.627565626425154 C59.47611384775961 -15.427831635119064, 59.72657235094052 -15.228097643812973, 60.202953708501866 -14.848196188198123 C60.4786603372711 -14.597806722747563, 60.75436696604033 -14.347417257297003, 61.12830973676799 -14.007812326905688 C61.319512507322074 -13.810379768269186, 61.51071527787616 -13.612947209632685, 61.99792094296865 -13.10986736009568 C62.19954323479726 -12.873030343480384, 62.401165526625874 -12.636193326865087, 62.80821390812658 -12.158051136245305 C62.97328288613574 -11.936873743806286, 63.13835186414491 -11.715696351367267, 63.555858964640635 -11.156274872382312 C63.771994025365615 -10.824233378718514, 63.9881290860906 -10.492191885054718, 64.23778387860425 -10.108655082055241 C64.44409020615194 -9.74233730671333, 64.65039653369963 -9.37601953137142, 64.8511864742735 -9.019496659696287 C65.02918648062403 -8.649875837919389, 65.20718648697458 -8.28025501614249, 65.39354614880834 -7.893275190886684 C65.58051404695479 -7.431460867686547, 65.76748194510125 -6.969646544486409, 65.86263422997033 -6.734618561215508 C66.01577490355633 -6.273383252027247, 66.16891557714234 -5.812147942838985, 66.25652313421489 -5.548287939305138 C66.34398677070327 -5.214751186395106, 66.43145040719165 -4.8812144334850744, 66.57359428754556 -4.339158212148133 C66.66091594390895 -3.8907799621607735, 66.74823760027232 -3.4424017121734143, 66.81254477658177 -3.1121979531509023 C66.84794006856501 -2.837679058119902, 66.88333536054824 -2.5631601630889014, 66.97239270250937 -1.872449005199798 C67.00357149677765 -1.3868141174015995, 67.03475029104592 -0.901179229603401, 67.05248121591342 -0.6250057626472757 C67.05248121591342 -0.27959671434042416, 67.05248121591342 0.06581233396642738, 67.05248121591342 0.625005762647271 C67.02541277575989 1.0466185672900208, 66.99834433560638 1.4682313719327706, 66.97239270250937 1.8724490051997846 C66.93646912694533 2.1510651633621367, 66.90054555138128 2.429681321524489, 66.81254477658177 3.1121979531508885 C66.75885941772783 3.3878609244612807, 66.7051740588739 3.6635238957716734, 66.57359428754556 4.339158212148129 C66.50134046725191 4.614693343931638, 66.42908664695825 4.890228475715147, 66.25652313421489 5.548287939305125 C66.15660417651776 5.849227919964942, 66.05668521882062 6.15016790062476, 65.86263422997033 6.734618561215495 C65.70711495643195 7.118754173615893, 65.55159568289358 7.502889786016292, 65.39354614880834 7.893275190886679 C65.20174294875606 8.291558639726276, 65.00993974870379 8.689842088565872, 64.8511864742735 9.019496659696284 C64.64897004944558 9.378552398611674, 64.44675362461767 9.737608137527065, 64.23778387860425 10.108655082055236 C64.0502721645205 10.396723428833315, 63.86276045043676 10.684791775611394, 63.55585896464064 11.156274872382301 C63.28128935192952 11.524173139608903, 63.0067197392184 11.892071406835505, 62.80821390812658 12.158051136245302 C62.486283054004986 12.536209435881066, 62.16435219988339 12.91436773551683, 61.99792094296866 13.10986736009567 C61.7532186259932 13.36254259280669, 61.508516309017736 13.61521782551771, 61.12830973676799 14.007812326905684 C60.91786376516609 14.198933790219241, 60.7074177935642 14.390055253532797, 60.20295370850189 14.848196188198111 C59.91449165332629 15.078237000902977, 59.626029598150694 15.308277813607843, 59.22565534457871 15.627565626425152 C58.98441394143693 15.795845186084836, 58.743172538295134 15.96412474574452, 58.20043057360571 16.34271804539089 C57.78513098839095 16.594475094519336, 57.36983140317619 16.846232143647786, 57.13149226407678 16.990714730406093 C56.775353695278326 17.17651199363061, 56.41921512647987 17.362309256855124, 56.02323291279239 17.56889292409717 C55.68766593332001 17.71743847166882, 55.35209895384764 17.865984019240468, 54.880206595147804 18.07487676824742 C54.49282765562921 18.217435798881926, 54.10544871611063 18.359994829516427, 53.70711025146062 18.506587066708033 C53.42825077758732 18.58935109479038, 53.14939130371402 18.67211512287273, 52.50876438623541 18.86224982926107 C52.230289229758434 18.925809966506716, 51.951814073281454 18.989370103752364, 51.290093259676766 19.140403561325773 C50.9121987539545 19.201498614395287, 50.53430424823223 19.262593667464806, 50.05610465284788 19.3399052695533 C49.736805580960656 19.370707667004943, 49.417506509073434 19.401510064456584, 48.8118692896239 19.45993515863156 C48.325578197751405 19.47552956743972, 47.83928710587891 19.49112397624788, 47.56250000000001 19.5 C47.56250000000001 19.5, 47.56250000000001 19.5, 47.5625 19.5 C14.924099485609823 19.5, -17.714301028780355 19.5, -47.56249999999999 19.5 C-48.0213060584294 19.485286982717987, -48.48011211685882 19.47057396543597, -48.81186928962389 19.45993515863156 C-49.16606001983658 19.425766804864615, -49.52025075004927 19.391598451097675, -50.05610465284787 19.3399052695533 C-50.48653841931722 19.270316076254247, -50.91697218578657 19.200726882955195, -51.29009325967676 19.140403561325773 C-51.70163164274681 19.04647261092896, -52.113170025816856 18.952541660532148, -52.508764386235384 18.862249829261074 C-52.92334386282411 18.739204816781623, -53.33792333941283 18.61615980430217, -53.70711025146059 18.506587066708043 C-54.07645661499653 18.37066419072646, -54.44580297853247 18.234741314744877, -54.8802065951478 18.074876768247425 C-55.217520198778374 17.925558041972707, -55.55483380240894 17.776239315697985, -56.02323291279238 17.568892924097174 C-56.28839225658376 17.430559464283874, -56.55355160037515 17.292226004470574, -57.13149226407678 16.990714730406097 C-57.530842438373256 16.748626307905454, -57.930192612669735 16.50653788540481, -58.200430573605686 16.3427180453909 C-58.498614983339046 16.134717509355962, -58.79679939307241 15.926716973321025, -59.22565534457871 15.627565626425156 C-59.459219059570565 15.441304779110641, -59.69278277456241 15.255043931796125, -60.202953708501866 14.848196188198125 C-60.46713962780543 14.608269526263017, -60.73132554710899 14.368342864327907, -61.128309736767974 14.007812326905697 C-61.32178435618551 13.808033897795426, -61.51525897560305 13.608255468685154, -61.997920942968655 13.109867360095677 C-62.187048315854724 12.887707586251317, -62.376175688740794 12.665547812406958, -62.808213908126575 12.158051136245307 C-62.96563167991682 11.947125663100419, -63.123049451707054 11.73620018995553, -63.555858964640635 11.156274872382316 C-63.800822997244246 10.77994433625006, -64.04578702984786 10.403613800117803, -64.23778387860425 10.108655082055249 C-64.45564000329333 9.721829472345025, -64.6734961279824 9.335003862634801, -64.8511864742735 9.019496659696289 C-64.9934467287651 8.724090197362663, -65.1357069832567 8.428683735029038, -65.39354614880834 7.893275190886686 C-65.57268053879686 7.450809784287231, -65.75181492878538 7.008344377687776, -65.86263422997033 6.73461856121551 C-65.95009221839221 6.471209034626904, -66.03755020681409 6.207799508038297, -66.25652313421489 5.5482879393051325 C-66.35762041415573 5.162760195052389, -66.45871769409658 4.777232450799646, -66.57359428754556 4.339158212148136 C-66.63476162067941 4.0250768842262055, -66.69592895381328 3.710995556304276, -66.81254477658177 3.112197953150904 C-66.86693684482267 2.6903438128032793, -66.92132891306356 2.268489672455654, -66.97239270250937 1.872449005199809 C-66.99962149561546 1.4483385738862362, -67.02685028872155 1.0242281425726634, -67.05248121591342 0.6250057626472781 C-67.05248121591342 0.20634450923204573, -67.05248121591342 -0.2123167441831867, -67.05248121591342 -0.6250057626472687 C-67.02367080244116 -1.0737512078247966, -66.99486038896892 -1.5224966530023245, -66.97239270250937 -1.8724490051997822 C-66.92397728049025 -2.2479494576735592, -66.87556185847114 -2.6234499101473365, -66.81254477658177 -3.112197953150895 C-66.72386885326681 -3.5675300777102046, -66.63519292995186 -4.022862202269514, -66.57359428754556 -4.339158212148126 C-66.45712254921193 -4.783315429584978, -66.3406508108783 -5.2274726470218305, -66.25652313421489 -5.548287939305123 C-66.12447806842096 -5.945986638952274, -65.99243300262704 -6.343685338599424, -65.86263422997033 -6.734618561215485 C-65.71245622172903 -7.1055611450657485, -65.56227821348774 -7.476503728916013, -65.39354614880834 -7.893275190886676 C-65.27083309504134 -8.148091472672597, -65.14812004127432 -8.402907754458518, -64.8511864742735 -9.019496659696282 C-64.68738040511414 -9.310350922651882, -64.52357433595478 -9.601205185607482, -64.23778387860425 -10.108655082055243 C-64.09613288630457 -10.326269044844885, -63.9544818940049 -10.543883007634529, -63.55585896464064 -11.156274872382308 C-63.36848782551617 -11.40733512894717, -63.1811166863917 -11.658395385512028, -62.80821390812659 -12.158051136245302 C-62.628724721854134 -12.368889347664958, -62.44923553558167 -12.579727559084612, -61.99792094296866 -13.10986736009567 C-61.70050388092709 -13.416974895048508, -61.40308681888552 -13.724082430001344, -61.128309736767996 -14.007812326905677 C-60.82673077239418 -14.281698363007836, -60.52515180802036 -14.555584399109996, -60.20295370850189 -14.848196188198107 C-59.83290005340718 -15.143304130594807, -59.46284639831247 -15.438412072991506, -59.22565534457872 -15.627565626425149 C-58.92850778716997 -15.834842899163053, -58.63136022976122 -16.042120171900958, -58.200430573605715 -16.342718045390885 C-57.94220812512788 -16.499254011141698, -57.68398567665003 -16.65578997689251, -57.13149226407679 -16.99071473040609 C-56.73958630102721 -17.195171820301308, -56.34768033797762 -17.399628910196526, -56.02323291279239 -17.56889292409717 C-55.681715158591416 -17.720072703117708, -55.34019740439045 -17.871252482138246, -54.880206595147804 -18.07487676824742 C-54.41881233245515 -18.244674122000127, -53.95741806976249 -18.414471475752837, -53.70711025146062 -18.506587066708033 C-53.3671856878537 -18.60747489288612, -53.02726112424678 -18.708362719064212, -52.50876438623541 -18.862249829261067 C-52.02874966975587 -18.97181005590876, -51.54873495327632 -19.081370282556456, -51.290093259676766 -19.140403561325773 C-51.019017980539665 -19.184228910236474, -50.74794270140256 -19.228054259147175, -50.05610465284788 -19.3399052695533 C-49.64852523090201 -19.379223966202446, -49.240945808956134 -19.418542662851593, -48.8118692896239 -19.45993515863156 C-48.33013910844082 -19.475383307911187, -47.848408927257736 -19.49083145719081, -47.56250000000001 -19.5 C-47.56250000000001 -19.5, -47.56250000000001 -19.5, -47.5625 -19.5" stroke="none" stroke-width="0" fill="#ECECFF" style=""/><path d="M-47.5625 -19.5 C-12.742666571395155 -19.5, 22.07716685720969 -19.5, 47.5625 -19.5 M-47.5625 -19.5 C-21.79172229488943 -19.5, 3.979055410221143 -19.5, 47.5625 -19.5 M47.5625 -19.5 C47.5625 -19.5, 47.5625 -19.5, 47.5625 -19.5 M47.5625 -19.5 C47.5625 -19.5, 47.5625 -19.5, 47.5625 -19.5 M47.5625 -19.5 C47.95650531565008 -19.487365016411925, 48.350510631300146 -19.47473003282385, 48.8118692896239 -19.45993515863156 M47.5625 -19.5 C48.022475135781725 -19.48524949268277, 48.48245027156345 -19.470498985365538, 48.8118692896239 -19.45993515863156 M48.8118692896239 -19.45993515863156 C49.2276937965875 -19.419821068546916, 49.64351830355111 -19.379706978462274, 50.056104652847864 -19.3399052695533 M48.8118692896239 -19.45993515863156 C49.280378131224936 -19.414738674146626, 49.74888697282598 -19.369542189661693, 50.056104652847864 -19.3399052695533 M50.056104652847864 -19.3399052695533 C50.42706172890005 -19.279931806312273, 50.79801880495223 -19.219958343071248, 51.29009325967676 -19.140403561325776 M50.056104652847864 -19.3399052695533 C50.51928738263848 -19.26502147783647, 50.9824701124291 -19.19013768611964, 51.29009325967676 -19.140403561325776 M51.29009325967676 -19.140403561325776 C51.74143075650212 -19.0373887229278, 52.192768253327486 -18.934373884529826, 52.50876438623539 -18.862249829261074 M51.29009325967676 -19.140403561325776 C51.68130844400295 -19.05111124842098, 52.07252362832915 -18.961818935516188, 52.50876438623539 -18.862249829261074 M52.50876438623539 -18.862249829261074 C52.919854590439364 -18.740240414509852, 53.33094479464334 -18.61823099975863, 53.707110251460605 -18.50658706670804 M52.50876438623539 -18.862249829261074 C52.81205806196054 -18.772233858326842, 53.11535173768569 -18.68221788739261, 53.707110251460605 -18.50658706670804 M53.707110251460605 -18.50658706670804 C54.15160469448941 -18.34300900281185, 54.5960991375182 -18.179430938915665, 54.8802065951478 -18.074876768247425 M53.707110251460605 -18.50658706670804 C53.972580350048005 -18.408891616449186, 54.238050448635406 -18.31119616619033, 54.8802065951478 -18.074876768247425 M54.8802065951478 -18.074876768247425 C55.217276710739604 -17.925665826904652, 55.55434682633141 -17.77645488556188, 56.02323291279238 -17.568892924097174 M54.8802065951478 -18.074876768247425 C55.32259995388225 -17.879042351468403, 55.76499331261671 -17.683207934689378, 56.02323291279238 -17.568892924097174 M56.02323291279238 -17.568892924097174 C56.37251948159039 -17.386670344883978, 56.721806050388395 -17.204447765670782, 57.13149226407678 -16.990714730406097 M56.02323291279238 -17.568892924097174 C56.37296117328206 -17.38643991461135, 56.722689433771734 -17.20398690512553, 57.13149226407678 -16.990714730406097 M57.13149226407678 -16.990714730406097 C57.39385597417816 -16.831668307522342, 57.65621968427954 -16.672621884638584, 58.2004305736057 -16.342718045390892 M57.13149226407678 -16.990714730406097 C57.38461268329682 -16.837271644774216, 57.63773310251686 -16.683828559142334, 58.2004305736057 -16.342718045390892 M58.2004305736057 -16.342718045390892 C58.5673646784295 -16.086760698187202, 58.93429878325329 -15.830803350983508, 59.22565534457871 -15.627565626425154 M58.2004305736057 -16.342718045390892 C58.608254936778074 -16.058237424073983, 59.016079299950455 -15.773756802757077, 59.22565534457871 -15.627565626425154 M59.22565534457871 -15.627565626425154 C59.43182215401433 -15.463153082229457, 59.63798896344995 -15.298740538033762, 60.202953708501866 -14.848196188198123 M59.22565534457871 -15.627565626425154 C59.561788080447606 -15.359508714437474, 59.89792081631649 -15.091451802449793, 60.202953708501866 -14.848196188198123 M60.202953708501866 -14.848196188198123 C60.54901812857007 -14.533909638254986, 60.89508254863827 -14.21962308831185, 61.12830973676799 -14.007812326905688 M60.202953708501866 -14.848196188198123 C60.529721407498236 -14.551434409769161, 60.856489106494614 -14.254672631340197, 61.12830973676799 -14.007812326905688 M61.12830973676799 -14.007812326905688 C61.42487486387349 -13.701584484719502, 61.721439990978986 -13.395356642533319, 61.99792094296865 -13.10986736009568 M61.12830973676799 -14.007812326905688 C61.44646618936685 -13.679289668466817, 61.76462264196571 -13.350767010027948, 61.99792094296865 -13.10986736009568 M61.99792094296865 -13.10986736009568 C62.180432010016496 -12.895479475567365, 62.362943077064344 -12.68109159103905, 62.80821390812658 -12.158051136245305 M61.99792094296865 -13.10986736009568 C62.22237750869219 -12.846207906056408, 62.44683407441573 -12.582548452017136, 62.80821390812658 -12.158051136245305 M62.80821390812658 -12.158051136245305 C62.97338372548588 -11.936738628263752, 63.13855354284519 -11.715426120282201, 63.555858964640635 -11.156274872382312 M62.80821390812658 -12.158051136245305 C63.0208590962089 -11.873125956590162, 63.233504284291215 -11.588200776935016, 63.555858964640635 -11.156274872382312 M63.555858964640635 -11.156274872382312 C63.716783105027766 -10.90905217856543, 63.877707245414896 -10.66182948474855, 64.23778387860425 -10.108655082055241 M63.555858964640635 -11.156274872382312 C63.724464116087475 -10.897252082937445, 63.89306926753432 -10.638229293492579, 64.23778387860425 -10.108655082055241 M64.23778387860425 -10.108655082055241 C64.46164747457337 -9.711162598764881, 64.68551107054247 -9.313670115474523, 64.8511864742735 -9.019496659696287 M64.23778387860425 -10.108655082055241 C64.37368541132753 -9.867348149182623, 64.50958694405081 -9.626041216310005, 64.8511864742735 -9.019496659696287 M64.8511864742735 -9.019496659696287 C64.99773561280699 -8.715184237882244, 65.14428475134049 -8.410871816068202, 65.39354614880834 -7.893275190886684 M64.8511864742735 -9.019496659696287 C65.03606101363407 -8.63560072303263, 65.22093555299462 -8.25170478636897, 65.39354614880834 -7.893275190886684 M65.39354614880834 -7.893275190886684 C65.49156255758999 -7.651172766177666, 65.58957896637163 -7.409070341468648, 65.86263422997033 -6.734618561215508 M65.39354614880834 -7.893275190886684 C65.49369024569242 -7.645917335428595, 65.59383434257651 -7.398559479970505, 65.86263422997033 -6.734618561215508 M65.86263422997033 -6.734618561215508 C65.99213050087273 -6.344596425686287, 66.12162677177514 -5.954574290157066, 66.25652313421489 -5.548287939305138 M65.86263422997033 -6.734618561215508 C65.98109884541334 -6.377822014274365, 66.09956346085636 -6.021025467333223, 66.25652313421489 -5.548287939305138 M66.25652313421489 -5.548287939305138 C66.33829153744993 -5.236469579119765, 66.42005994068498 -4.924651218934391, 66.57359428754556 -4.339158212148133 M66.25652313421489 -5.548287939305138 C66.33449633595937 -5.250942327253992, 66.41246953770387 -4.953596715202846, 66.57359428754556 -4.339158212148133 M66.57359428754556 -4.339158212148133 C66.63698058969948 -4.01368294728744, 66.7003668918534 -3.6882076824267473, 66.81254477658177 -3.1121979531509023 M66.57359428754556 -4.339158212148133 C66.62153909131112 -4.092971777949879, 66.66948389507667 -3.846785343751625, 66.81254477658177 -3.1121979531509023 M66.81254477658177 -3.1121979531509023 C66.84683199913319 -2.8462730258200843, 66.8811192216846 -2.5803480984892664, 66.97239270250937 -1.872449005199798 M66.81254477658177 -3.1121979531509023 C66.85246182336489 -2.802609220813531, 66.89237887014801 -2.4930204884761595, 66.97239270250937 -1.872449005199798 M66.97239270250937 -1.872449005199798 C66.99126643805366 -1.5784753394924413, 67.01014017359793 -1.284501673785085, 67.05248121591342 -0.6250057626472757 M66.97239270250937 -1.872449005199798 C66.99654132733276 -1.4963146811561758, 67.02068995215618 -1.1201803571125537, 67.05248121591342 -0.6250057626472757 M67.05248121591342 -0.6250057626472757 C67.05248121591342 -0.30698109540476926, 67.05248121591342 0.011043571837737187, 67.05248121591342 0.625005762647271 M67.05248121591342 -0.6250057626472757 C67.05248121591342 -0.16917015072423686, 67.05248121591342 0.286665461198802, 67.05248121591342 0.625005762647271 M67.05248121591342 0.625005762647271 C67.02772202312167 1.0106501756394701, 67.00296283032992 1.3962945886316693, 66.97239270250937 1.8724490051997846 M67.05248121591342 0.625005762647271 C67.0286557928686 0.9961059581055896, 67.0048303698238 1.3672061535639082, 66.97239270250937 1.8724490051997846 M66.97239270250937 1.8724490051997846 C66.92239075333814 2.2602542489701216, 66.87238880416692 2.6480594927404586, 66.81254477658177 3.1121979531508885 M66.97239270250937 1.8724490051997846 C66.92967771142473 2.2037380410231497, 66.8869627203401 2.5350270768465144, 66.81254477658177 3.1121979531508885 M66.81254477658177 3.1121979531508885 C66.73043218387352 3.533828762205194, 66.64831959116526 3.955459571259499, 66.57359428754556 4.339158212148129 M66.81254477658177 3.1121979531508885 C66.76469180277836 3.3579128599018726, 66.71683882897493 3.6036277666528562, 66.57359428754556 4.339158212148129 M66.57359428754556 4.339158212148129 C66.50429921767315 4.6034103462448694, 66.43500414780075 4.86766248034161, 66.25652313421489 5.548287939305125 M66.57359428754556 4.339158212148129 C66.45620007212494 4.786833234521762, 66.33880585670433 5.234508256895394, 66.25652313421489 5.548287939305125 M66.25652313421489 5.548287939305125 C66.12482132550096 5.944952803317929, 65.99311951678702 6.341617667330733, 65.86263422997033 6.734618561215495 M66.25652313421489 5.548287939305125 C66.10870162171393 5.993502782798425, 65.96088010921298 6.438717626291725, 65.86263422997033 6.734618561215495 M65.86263422997033 6.734618561215495 C65.7317542469902 7.057894649568724, 65.60087426401009 7.381170737921955, 65.39354614880834 7.893275190886679 M65.86263422997033 6.734618561215495 C65.76336967589066 6.979803928941881, 65.66410512181098 7.224989296668268, 65.39354614880834 7.893275190886679 M65.39354614880834 7.893275190886679 C65.28320597544013 8.122398921787271, 65.17286580207193 8.351522652687862, 64.8511864742735 9.019496659696284 M65.39354614880834 7.893275190886679 C65.24535705902613 8.200993006558003, 65.09716796924394 8.508710822229325, 64.8511864742735 9.019496659696284 M64.8511864742735 9.019496659696284 C64.6402272191559 9.394076179098564, 64.42926796403832 9.768655698500844, 64.23778387860425 10.108655082055236 M64.8511864742735 9.019496659696284 C64.69108227962509 9.303777869602246, 64.53097808497668 9.588059079508207, 64.23778387860425 10.108655082055236 M64.23778387860425 10.108655082055236 C64.04609136010012 10.403146267126198, 63.854398841596 10.697637452197162, 63.55585896464064 11.156274872382301 M64.23778387860425 10.108655082055236 C64.07753459451521 10.354841015373959, 63.91728531042617 10.601026948692683, 63.55585896464064 11.156274872382301 M63.55585896464064 11.156274872382301 C63.34285463225129 11.441681272690156, 63.129850299861936 11.72708767299801, 62.80821390812658 12.158051136245302 M63.55585896464064 11.156274872382301 C63.37437781246889 11.399443083019364, 63.19289666029714 11.642611293656426, 62.80821390812658 12.158051136245302 M62.80821390812658 12.158051136245302 C62.51379303153982 12.503894650906586, 62.21937215495306 12.84973816556787, 61.99792094296866 13.10986736009567 M62.80821390812658 12.158051136245302 C62.64578702045722 12.348847000853471, 62.48336013278785 12.539642865461639, 61.99792094296866 13.10986736009567 M61.99792094296866 13.10986736009567 C61.748726617317075 13.367180960565557, 61.49953229166549 13.624494561035444, 61.12830973676799 14.007812326905684 M61.99792094296866 13.10986736009567 C61.67493566248123 13.44337617978363, 61.351950381993795 13.776884999471593, 61.12830973676799 14.007812326905684 M61.12830973676799 14.007812326905684 C60.908719458306486 14.207238407764033, 60.68912917984498 14.406664488622381, 60.20295370850189 14.848196188198111 M61.12830973676799 14.007812326905684 C60.76373724709946 14.33890741596315, 60.39916475743094 14.670002505020618, 60.20295370850189 14.848196188198111 M60.20295370850189 14.848196188198111 C59.8772982723574 15.107897732468231, 59.55164283621291 15.367599276738352, 59.22565534457871 15.627565626425152 M60.20295370850189 14.848196188198111 C59.910667506479875 15.08128665624817, 59.61838130445786 15.31437712429823, 59.22565534457871 15.627565626425152 M59.22565534457871 15.627565626425152 C58.848000533625395 15.89100127413291, 58.470345722672086 16.154436921840666, 58.20043057360571 16.34271804539089 M59.22565534457871 15.627565626425152 C58.920400109949924 15.840498463816063, 58.61514487532114 16.053431301206974, 58.20043057360571 16.34271804539089 M58.20043057360571 16.34271804539089 C57.95380902302904 16.49222147865957, 57.70718747245237 16.641724911928247, 57.13149226407678 16.990714730406093 M58.20043057360571 16.34271804539089 C57.96228167301331 16.487085308448286, 57.72413277242091 16.631452571505683, 57.13149226407678 16.990714730406093 M57.13149226407678 16.990714730406093 C56.851436655069996 17.136819562240756, 56.57138104606321 17.28292439407542, 56.02323291279239 17.56889292409717 M57.13149226407678 16.990714730406093 C56.80803405505328 17.159462670868784, 56.48457584602978 17.328210611331475, 56.02323291279239 17.56889292409717 M56.02323291279239 17.56889292409717 C55.65193717770132 17.733254531925333, 55.28064144261026 17.8976161397535, 54.880206595147804 18.07487676824742 M56.02323291279239 17.56889292409717 C55.64641970840125 17.735696951914566, 55.26960650401011 17.90250097973196, 54.880206595147804 18.07487676824742 M54.880206595147804 18.07487676824742 C54.47288471849789 18.224774984096744, 54.06556284184797 18.374673199946063, 53.70711025146062 18.506587066708033 M54.880206595147804 18.07487676824742 C54.455185647029815 18.231288406005415, 54.030164698911825 18.387700043763413, 53.70711025146062 18.506587066708033 M53.70711025146062 18.506587066708033 C53.41447984695608 18.593438234716643, 53.121849442451534 18.680289402725254, 52.50876438623541 18.86224982926107 M53.70711025146062 18.506587066708033 C53.43139757617564 18.58841714148725, 53.15568490089067 18.670247216266464, 52.50876438623541 18.86224982926107 M52.50876438623541 18.86224982926107 C52.07744065558354 18.960696656131976, 51.64611692493166 19.05914348300288, 51.290093259676766 19.140403561325773 M52.50876438623541 18.86224982926107 C52.15850239870243 18.942194842242397, 51.80824041116945 19.022139855223724, 51.290093259676766 19.140403561325773 M51.290093259676766 19.140403561325773 C50.973466404485315 19.191593335795194, 50.65683954929386 19.24278311026461, 50.05610465284788 19.3399052695533 M51.290093259676766 19.140403561325773 C50.880955177692634 19.206549833507754, 50.4718170957085 19.272696105689736, 50.05610465284788 19.3399052695533 M50.05610465284788 19.3399052695533 C49.6216128604873 19.38182017020949, 49.18712106812672 19.423735070865686, 48.8118692896239 19.45993515863156 M50.05610465284788 19.3399052695533 C49.77740938592439 19.366790666773312, 49.4987141190009 19.393676063993322, 48.8118692896239 19.45993515863156 M48.8118692896239 19.45993515863156 C48.48233923902609 19.470502545962898, 48.15280918842827 19.481069933294236, 47.56250000000001 19.5 M48.8118692896239 19.45993515863156 C48.42230902015579 19.472427598240337, 48.032748750687674 19.484920037849115, 47.56250000000001 19.5 M47.56250000000001 19.5 C47.56250000000001 19.5, 47.5625 19.5, 47.5625 19.5 M47.56250000000001 19.5 C47.56250000000001 19.5, 47.5625 19.5, 47.5625 19.5 M47.5625 19.5 C16.15016362043764 19.5, -15.262172759124716 19.5, -47.56249999999999 19.5 M47.5625 19.5 C13.303968819220415 19.5, -20.95456236155917 19.5, -47.56249999999999 19.5 M-47.56249999999999 19.5 C-48.002137140371154 19.485901692610078, -48.441774280742315 19.471803385220156, -48.81186928962389 19.45993515863156 M-47.56249999999999 19.5 C-47.90627668481091 19.488975750838836, -48.25005336962183 19.477951501677676, -48.81186928962389 19.45993515863156 M-48.81186928962389 19.45993515863156 C-49.19481688271624 19.422992664887804, -49.577764475808586 19.38605017114405, -50.05610465284787 19.3399052695533 M-48.81186928962389 19.45993515863156 C-49.2881928123403 19.413984801257957, -49.7645163350567 19.368034443884355, -50.05610465284787 19.3399052695533 M-50.05610465284787 19.3399052695533 C-50.54689938856938 19.260557382851864, -51.03769412429089 19.181209496150434, -51.29009325967676 19.140403561325773 M-50.05610465284787 19.3399052695533 C-50.416432731523294 19.28165022017904, -50.776760810198724 19.223395170804782, -51.29009325967676 19.140403561325773 M-51.29009325967676 19.140403561325773 C-51.761663243825055 19.032770789725657, -52.23323322797336 18.92513801812554, -52.508764386235384 18.862249829261074 M-51.29009325967676 19.140403561325773 C-51.705620392245464 19.045562204884916, -52.12114752481417 18.950720848444057, -52.508764386235384 18.862249829261074 M-52.508764386235384 18.862249829261074 C-52.91385013694637 18.74202250478855, -53.31893588765737 18.621795180316024, -53.70711025146059 18.506587066708043 M-52.508764386235384 18.862249829261074 C-52.7826611199242 18.78095871641553, -53.056557853613015 18.69966760356998, -53.70711025146059 18.506587066708043 M-53.70711025146059 18.506587066708043 C-53.95671016869487 18.414731989889486, -54.20631008592915 18.32287691307093, -54.8802065951478 18.074876768247425 M-53.70711025146059 18.506587066708043 C-54.11441691661808 18.35669444882855, -54.521723581775575 18.206801830949054, -54.8802065951478 18.074876768247425 M-54.8802065951478 18.074876768247425 C-55.12330579778151 17.967263962523106, -55.366405000415234 17.859651156798787, -56.02323291279238 17.568892924097174 M-54.8802065951478 18.074876768247425 C-55.26843515379499 17.903019501725325, -55.65666371244219 17.731162235203225, -56.02323291279238 17.568892924097174 M-56.02323291279238 17.568892924097174 C-56.464793275896156 17.338531165498846, -56.90635363899993 17.10816940690052, -57.13149226407678 16.990714730406097 M-56.02323291279238 17.568892924097174 C-56.30569697011411 17.421531606319288, -56.588161027435845 17.274170288541406, -57.13149226407678 16.990714730406097 M-57.13149226407678 16.990714730406097 C-57.50259011227162 16.765753034017365, -57.873687960466455 16.54079133762863, -58.200430573605686 16.3427180453909 M-57.13149226407678 16.990714730406097 C-57.49773652610195 16.768695306476257, -57.863980788127115 16.546675882546413, -58.200430573605686 16.3427180453909 M-58.200430573605686 16.3427180453909 C-58.414274959893845 16.193549458690562, -58.628119346182004 16.044380871990224, -59.22565534457871 15.627565626425156 M-58.200430573605686 16.3427180453909 C-58.569181303485415 16.085493499188622, -58.93793203336514 15.828268952986344, -59.22565534457871 15.627565626425156 M-59.22565534457871 15.627565626425156 C-59.56297371865995 15.358563199514291, -59.900292092741175 15.089560772603429, -60.202953708501866 14.848196188198125 M-59.22565534457871 15.627565626425156 C-59.48530412632879 15.420502632523734, -59.744952908078865 15.213439638622312, -60.202953708501866 14.848196188198125 M-60.202953708501866 14.848196188198125 C-60.424501166227955 14.646992648915802, -60.64604862395405 14.44578910963348, -61.128309736767974 14.007812326905697 M-60.202953708501866 14.848196188198125 C-60.4628005262649 14.61221018347579, -60.722647344027926 14.376224178753457, -61.128309736767974 14.007812326905697 M-61.128309736767974 14.007812326905697 C-61.38967607640062 13.737930122659433, -61.65104241603326 13.46804791841317, -61.997920942968655 13.109867360095677 M-61.128309736767974 14.007812326905697 C-61.45856817937172 13.666793370194933, -61.78882662197546 13.325774413484169, -61.997920942968655 13.109867360095677 M-61.997920942968655 13.109867360095677 C-62.20276774745947 12.869242647427392, -62.407614551950275 12.628617934759104, -62.808213908126575 12.158051136245307 M-61.997920942968655 13.109867360095677 C-62.230906061348676 12.836189782817703, -62.4638911797287 12.562512205539731, -62.808213908126575 12.158051136245307 M-62.808213908126575 12.158051136245307 C-63.01603763884983 11.879586270207506, -63.223861369573086 11.601121404169703, -63.555858964640635 11.156274872382316 M-62.808213908126575 12.158051136245307 C-62.980867337156575 11.926711270396067, -63.15352076618658 11.695371404546826, -63.555858964640635 11.156274872382316 M-63.555858964640635 11.156274872382316 C-63.69685049868367 10.939674014564204, -63.83784203272671 10.723073156746093, -64.23778387860425 10.108655082055249 M-63.555858964640635 11.156274872382316 C-63.80366186181893 10.775583077921466, -64.05146475899723 10.394891283460616, -64.23778387860425 10.108655082055249 M-64.23778387860425 10.108655082055249 C-64.42143951144463 9.78255590879771, -64.60509514428502 9.45645673554017, -64.8511864742735 9.019496659696289 M-64.23778387860425 10.108655082055249 C-64.38840108743692 9.84121897612661, -64.53901829626959 9.573782870197972, -64.8511864742735 9.019496659696289 M-64.8511864742735 9.019496659696289 C-65.04061176814847 8.626150983912916, -65.23003706202344 8.232805308129546, -65.39354614880834 7.893275190886686 M-64.8511864742735 9.019496659696289 C-64.96302359124778 8.78726449336824, -65.07486070822206 8.55503232704019, -65.39354614880834 7.893275190886686 M-65.39354614880834 7.893275190886686 C-65.49085871244972 7.6529112772820325, -65.58817127609112 7.412547363677379, -65.86263422997033 6.73461856121551 M-65.39354614880834 7.893275190886686 C-65.52398757337818 7.571082350285803, -65.65442899794802 7.248889509684919, -65.86263422997033 6.73461856121551 M-65.86263422997033 6.73461856121551 C-66.0052891253322 6.30496474535647, -66.14794402069407 5.875310929497431, -66.25652313421489 5.5482879393051325 M-65.86263422997033 6.73461856121551 C-65.94219186797574 6.495003631331423, -66.02174950598115 6.255388701447337, -66.25652313421489 5.5482879393051325 M-66.25652313421489 5.5482879393051325 C-66.38257011783084 5.067616161669245, -66.50861710144679 4.586944384033358, -66.57359428754556 4.339158212148136 M-66.25652313421489 5.5482879393051325 C-66.35313121491382 5.179879457393099, -66.44973929561273 4.8114709754810665, -66.57359428754556 4.339158212148136 M-66.57359428754556 4.339158212148136 C-66.65910968060228 3.9000547424865695, -66.74462507365901 3.460951272825003, -66.81254477658177 3.112197953150904 M-66.57359428754556 4.339158212148136 C-66.62800063552021 4.059793114084009, -66.68240698349487 3.780428016019882, -66.81254477658177 3.112197953150904 M-66.81254477658177 3.112197953150904 C-66.8554587971095 2.7793652842696894, -66.89837281763724 2.4465326153884748, -66.97239270250937 1.872449005199809 M-66.81254477658177 3.112197953150904 C-66.85158414376437 2.8094163304777107, -66.89062351094697 2.5066347078045172, -66.97239270250937 1.872449005199809 M-66.97239270250937 1.872449005199809 C-66.98970120681142 1.6028550795220684, -67.00700971111348 1.333261153844328, -67.05248121591342 0.6250057626472781 M-66.97239270250937 1.872449005199809 C-66.99123451405079 1.57897258160557, -67.01007632559222 1.2854961580113309, -67.05248121591342 0.6250057626472781 M-67.05248121591342 0.6250057626472781 C-67.05248121591342 0.18393122277228136, -67.05248121591342 -0.25714331710271543, -67.05248121591342 -0.6250057626472687 M-67.05248121591342 0.6250057626472781 C-67.05248121591342 0.1794117693869703, -67.05248121591342 -0.26618222387333756, -67.05248121591342 -0.6250057626472687 M-67.05248121591342 -0.6250057626472687 C-67.02614611670028 -1.0351961902015296, -66.99981101748712 -1.4453866177557906, -66.97239270250937 -1.8724490051997822 M-67.05248121591342 -0.6250057626472687 C-67.03339506450791 -0.9222879768521085, -67.01430891310241 -1.2195701910569483, -66.97239270250937 -1.8724490051997822 M-66.97239270250937 -1.8724490051997822 C-66.93449360003429 -2.1663869599721712, -66.89659449755922 -2.460324914744561, -66.81254477658177 -3.112197953150895 M-66.97239270250937 -1.8724490051997822 C-66.92956806830115 -2.2045884114381677, -66.88674343409293 -2.536727817676553, -66.81254477658177 -3.112197953150895 M-66.81254477658177 -3.112197953150895 C-66.76273863644002 -3.367941956247359, -66.71293249629827 -3.6236859593438226, -66.57359428754556 -4.339158212148126 M-66.81254477658177 -3.112197953150895 C-66.72485071081661 -3.562488446707654, -66.63715664505145 -4.012778940264413, -66.57359428754556 -4.339158212148126 M-66.57359428754556 -4.339158212148126 C-66.47339113611697 -4.721276256865867, -66.37318798468839 -5.103394301583607, -66.25652313421489 -5.548287939305123 M-66.57359428754556 -4.339158212148126 C-66.48527237561748 -4.67596794128865, -66.39695046368941 -5.012777670429172, -66.25652313421489 -5.548287939305123 M-66.25652313421489 -5.548287939305123 C-66.13624973178956 -5.910532264445899, -66.01597632936424 -6.272776589586676, -65.86263422997033 -6.734618561215485 M-66.25652313421489 -5.548287939305123 C-66.16735793752201 -5.816839305199228, -66.07819274082915 -6.085390671093334, -65.86263422997033 -6.734618561215485 M-65.86263422997033 -6.734618561215485 C-65.74932304410412 -7.014499381027783, -65.6360118582379 -7.294380200840082, -65.39354614880834 -7.893275190886676 M-65.86263422997033 -6.734618561215485 C-65.76080612158617 -6.986135957636908, -65.658978013202 -7.237653354058332, -65.39354614880834 -7.893275190886676 M-65.39354614880834 -7.893275190886676 C-65.2465099503139 -8.19859900313106, -65.09947375181945 -8.503922815375445, -64.8511864742735 -9.019496659696282 M-65.39354614880834 -7.893275190886676 C-65.27493493441797 -8.13957391544171, -65.1563237200276 -8.385872639996746, -64.8511864742735 -9.019496659696282 M-64.8511864742735 -9.019496659696282 C-64.66404028759594 -9.351793664748623, -64.47689410091839 -9.684090669800964, -64.23778387860425 -10.108655082055243 M-64.8511864742735 -9.019496659696282 C-64.60660892935412 -9.453768856862622, -64.36203138443473 -9.888041054028962, -64.23778387860425 -10.108655082055243 M-64.23778387860425 -10.108655082055243 C-64.03681224252365 -10.41740148351563, -63.83584060644305 -10.726147884976013, -63.55585896464064 -11.156274872382308 M-64.23778387860425 -10.108655082055243 C-64.06572551864625 -10.372982927089572, -63.893667158688245 -10.6373107721239, -63.55585896464064 -11.156274872382308 M-63.55585896464064 -11.156274872382308 C-63.40351030853093 -11.360408192321225, -63.251161652421224 -11.564541512260142, -62.80821390812659 -12.158051136245302 M-63.55585896464064 -11.156274872382308 C-63.381169297054534 -11.390343112391587, -63.20647962946842 -11.624411352400864, -62.80821390812659 -12.158051136245302 M-62.80821390812659 -12.158051136245302 C-62.64267755888933 -12.352499551344492, -62.477141209652075 -12.546947966443684, -61.99792094296866 -13.10986736009567 M-62.80821390812659 -12.158051136245302 C-62.55730213567365 -12.452786381452828, -62.30639036322072 -12.747521626660353, -61.99792094296866 -13.10986736009567 M-61.99792094296866 -13.10986736009567 C-61.79154716949463 -13.322965224809519, -61.58517339602059 -13.536063089523367, -61.128309736767996 -14.007812326905677 M-61.99792094296866 -13.10986736009567 C-61.67168371595116 -13.446734081565701, -61.34544648893366 -13.783600803035734, -61.128309736767996 -14.007812326905677 M-61.128309736767996 -14.007812326905677 C-60.762486815672645 -14.340043024700382, -60.396663894577294 -14.672273722495087, -60.20295370850189 -14.848196188198107 M-61.128309736767996 -14.007812326905677 C-60.8210641395681 -14.286844649009588, -60.51381854236821 -14.565876971113498, -60.20295370850189 -14.848196188198107 M-60.20295370850189 -14.848196188198107 C-59.935366796595424 -15.061589629656732, -59.66777988468897 -15.274983071115354, -59.22565534457872 -15.627565626425149 M-60.20295370850189 -14.848196188198107 C-59.90612180446696 -15.084911732637256, -59.60928990043204 -15.321627277076404, -59.22565534457872 -15.627565626425149 M-59.22565534457872 -15.627565626425149 C-58.82477571382277 -15.907201903040981, -58.423896083066815 -16.186838179656814, -58.200430573605715 -16.342718045390885 M-59.22565534457872 -15.627565626425149 C-58.975706512938686 -15.801919111266702, -58.72575768129866 -15.976272596108256, -58.200430573605715 -16.342718045390885 M-58.200430573605715 -16.342718045390885 C-57.814281900302305 -16.5768036404089, -57.428133226998895 -16.810889235426917, -57.13149226407679 -16.99071473040609 M-58.200430573605715 -16.342718045390885 C-57.91495992480447 -16.515772030305943, -57.62948927600322 -16.688826015221004, -57.13149226407679 -16.99071473040609 M-57.13149226407679 -16.99071473040609 C-56.75287516259998 -17.188239029730717, -56.374258061123165 -17.385763329055344, -56.02323291279239 -17.56889292409717 M-57.13149226407679 -16.99071473040609 C-56.755946433422125 -17.186636749710047, -56.38040060276745 -17.382558769014, -56.02323291279239 -17.56889292409717 M-56.02323291279239 -17.56889292409717 C-55.64092565982453 -17.738129004244318, -55.25861840685667 -17.90736508439147, -54.880206595147804 -18.07487676824742 M-56.02323291279239 -17.56889292409717 C-55.72717329048973 -17.699949736593897, -55.431113668187066 -17.831006549090624, -54.880206595147804 -18.07487676824742 M-54.880206595147804 -18.07487676824742 C-54.63099413872053 -18.16658925590735, -54.38178168229326 -18.25830174356728, -53.70711025146062 -18.506587066708033 M-54.880206595147804 -18.07487676824742 C-54.64381717239173 -18.161870260981527, -54.40742774963566 -18.248863753715632, -53.70711025146062 -18.506587066708033 M-53.70711025146062 -18.506587066708033 C-53.254789633780284 -18.640833451756183, -52.80246901609994 -18.775079836804338, -52.50876438623541 -18.862249829261067 M-53.70711025146062 -18.506587066708033 C-53.28906451062337 -18.630660848221655, -52.87101876978612 -18.754734629735278, -52.50876438623541 -18.862249829261067 M-52.50876438623541 -18.862249829261067 C-52.111461577706365 -18.9529316026647, -51.714158769177324 -19.043613376068336, -51.290093259676766 -19.140403561325773 M-52.50876438623541 -18.862249829261067 C-52.198543664675476 -18.933055684577727, -51.88832294311553 -19.003861539894388, -51.290093259676766 -19.140403561325773 M-51.290093259676766 -19.140403561325773 C-50.848658028984346 -19.21177138604278, -50.40722279829193 -19.28313921075979, -50.05610465284788 -19.3399052695533 M-51.290093259676766 -19.140403561325773 C-51.00916736036164 -19.185821482114157, -50.7282414610465 -19.231239402902542, -50.05610465284788 -19.3399052695533 M-50.05610465284788 -19.3399052695533 C-49.67488217684819 -19.37668134332588, -49.2936597008485 -19.413457417098467, -48.8118692896239 -19.45993515863156 M-50.05610465284788 -19.3399052695533 C-49.6939936200357 -19.374837685386456, -49.33188258722352 -19.409770101219614, -48.8118692896239 -19.45993515863156 M-48.8118692896239 -19.45993515863156 C-48.348712868607514 -19.47478768357427, -47.88555644759113 -19.48964020851698, -47.56250000000001 -19.5 M-48.8118692896239 -19.45993515863156 C-48.44463806013303 -19.471711549389106, -48.07740683064217 -19.483487940146652, -47.56250000000001 -19.5 M-47.56250000000001 -19.5 C-47.56250000000001 -19.5, -47.56250000000001 -19.5, -47.5625 -19.5 M-47.56250000000001 -19.5 C-47.56250000000001 -19.5, -47.5625 -19.5, -47.5625 -19.5" stroke="#9370DB" stroke-width="1.3" fill="none" stroke-dasharray="0 0" style=""/></g><g class="label" style="" transform="translate(-54.6875, -12)"><rect/><foreignObject width="109.375" height="24"><div xmlns="http://www.w3.org/1999/xhtml" style="display: table-cell; white-space: nowrap; line-height: 1.5; max-width: 200px; text-align: center;"><span class="nodeLabel"><p>Inicio (App.tsx)</p></span></div></foreignObject></g></g><g class="node default" id="my-svg-flowchart-providers-1" data-look="classic" transform="translate(876.48828125, 172)"><rect class="basic label-container" style="" x="-130" y="-75" width="260" height="150"/><g class="label" style="" transform="translate(-100, -60)"><rect/><foreignObject width="200" height="120"><div xmlns="http://www.w3.org/1999/xhtml" style="display: table; white-space: break-spaces; line-height: 1.5; max-width: 200px; text-align: center; width: 200px;"><span class="nodeLabel"><p>Providers globales<br />Auth, Sync, Theme, FontSize, Daltonismo,<br />Grupos, Alumnos, Recursos, ...</p></span></div></foreignObject></g></g><g class="node default" id="my-svg-flowchart-authCheck-3" data-look="classic" transform="translate(876.48828125, 373.1640625)"><polygon points="76.1640625,0 152.328125,-76.1640625 76.1640625,-152.328125 0,-76.1640625" class="label-container" transform="translate(-75.6640625, 76.1640625)"/><g class="label" style="" transform="translate(-49.1640625, -12)"><rect/><foreignObject width="98.328125" height="24"><div xmlns="http://www.w3.org/1999/xhtml" style="display: table-cell; white-space: nowrap; line-height: 1.5; max-width: 200px; text-align: center;"><span class="nodeLabel"><p>Sesion valida?</p></span></div></foreignObject></g></g><g class="node default" id="my-svg-flowchart-authStack-5" data-look="classic" transform="translate(1058.0078125, 613.53125)"><rect class="basic label-container" style="" x="-130" y="-51" width="260" height="102"/><g class="label" style="" transform="translate(-100, -36)"><rect/><foreignObject width="200" height="72"><div xmlns="http://www.w3.org/1999/xhtml" style="display: table; white-space: break-spaces; line-height: 1.5; max-width: 200px; text-align: center; width: 200px;"><span class="nodeLabel"><p>Stack Auth<br />Login / Registro / Recuperar contrasena</p></span></div></foreignObject></g></g><g class="node default" id="my-svg-flowchart-guest-9" data-look="classic" transform="translate(1058.0078125, 828.734375)"><rect class="basic label-container" style="" x="-130" y="-51" width="260" height="102"/><g class="label" style="" transform="translate(-100, -36)"><rect/><foreignObject width="200" height="72"><div xmlns="http://www.w3.org/1999/xhtml" style="display: table; white-space: break-spaces; line-height: 1.5; max-width: 200px; text-align: center; width: 200px;"><span class="nodeLabel"><p>Modo invitado<br />(solo local, sin sync remoto)</p></span></div></foreignObject></g></g><g class="node default" id="my-svg-flowchart-onboarding-11" data-look="classic" transform="translate(706.53515625, 613.53125)"><polygon points="90.203125,0 180.40625,-90.203125 90.203125,-180.40625 0,-90.203125" class="label-container" transform="translate(-89.703125, 90.203125)"/><g class="label" style="" transform="translate(-63.203125, -12)"><rect/><foreignObject width="126.40625" height="24"><div xmlns="http://www.w3.org/1999/xhtml" style="display: table-cell; white-space: nowrap; line-height: 1.5; max-width: 200px; text-align: center;"><span class="nodeLabel"><p>Onboarding visto?</p></span></div></foreignObject></g></g><g class="node default" id="my-svg-flowchart-onb-13" data-look="classic" transform="translate(797.4296875, 828.734375)"><rect class="basic label-container" style="" x="-70.953125" y="-27" width="141.90625" height="54"/><g class="label" style="" transform="translate(-40.953125, -12)"><rect/><foreignObject width="81.90625" height="24"><div xmlns="http://www.w3.org/1999/xhtml" style="display: table-cell; white-space: nowrap; line-height: 1.5; max-width: 200px; text-align: center;"><span class="nodeLabel"><p>Onboarding</p></span></div></foreignObject></g></g><g class="node default" id="my-svg-flowchart-feed-20" data-look="classic" transform="translate(797.4296875, 981.734375)"><rect class="basic label-container" style="" x="-47.3828125" y="-27" width="94.765625" height="54"/><g class="label" style="" transform="translate(-17.3828125, -12)"><rect/><foreignObject width="34.765625" height="24"><div xmlns="http://www.w3.org/1999/xhtml" style="display: table-cell; white-space: nowrap; line-height: 1.5; max-width: 200px; text-align: center;"><span class="nodeLabel"><p>Feed</p></span></div></foreignObject></g></g><g class="node default" id="my-svg-flowchart-recursos-21" data-look="classic" transform="translate(1910.8203125, 981.734375)"><rect class="basic label-container" style="" x="-106.3125" y="-27" width="212.625" height="54"/><g class="label" style="" transform="translate(-76.3125, -12)"><rect/><foreignObject width="152.625" height="24"><div xmlns="http://www.w3.org/1999/xhtml" style="display: table-cell; white-space: nowrap; line-height: 1.5; max-width: 200px; text-align: center;"><span class="nodeLabel"><p>Recursos / Contenido</p></span></div></foreignObject></g></g><g class="node default" id="my-svg-flowchart-classroom-22" data-look="classic" transform="translate(2342.703125, 981.734375)"><rect class="basic label-container" style="" x="-99.328125" y="-27" width="198.65625" height="54"/><g class="label" style="" transform="translate(-69.328125, -12)"><rect/><foreignObject width="138.65625" height="24"><div xmlns="http://www.w3.org/1999/xhtml" style="display: table-cell; white-space: nowrap; line-height: 1.5; max-width: 200px; text-align: center;"><span class="nodeLabel"><p>Classroom (Grupos)</p></span></div></foreignObject></g></g><g class="node default" id="my-svg-flowchart-social-23" data-look="classic" transform="translate(2613.7421875, 981.734375)"><rect class="basic label-container" style="" x="-50.9453125" y="-27" width="101.890625" height="54"/><g class="label" style="" transform="translate(-20.9453125, -12)"><rect/><foreignObject width="41.890625" height="24"><div xmlns="http://www.w3.org/1999/xhtml" style="display: table-cell; white-space: nowrap; line-height: 1.5; max-width: 200px; text-align: center;"><span class="nodeLabel"><p>Social</p></span></div></foreignObject></g></g><g class="node default" id="my-svg-flowchart-config-24" data-look="classic" transform="translate(2884.78125, 981.734375)"><rect class="basic label-container" style="" x="-79.296875" y="-27" width="158.59375" height="54"/><g class="label" style="" transform="translate(-49.296875, -12)"><rect/><foreignObject width="98.59375" height="24"><div xmlns="http://www.w3.org/1999/xhtml" style="display: table-cell; white-space: nowrap; line-height: 1.5; max-width: 200px; text-align: center;"><span class="nodeLabel"><p>Configuracion</p></span></div></foreignObject></g></g><g class="node default" id="my-svg-flowchart-grupos-26" data-look="classic" transform="translate(2342.703125, 1265.6295776367188)"><rect class="basic label-container" style="" x="-130" y="-51" width="260" height="102"/><g class="label" style="" transform="translate(-100, -36)"><rect/><foreignObject width="200" height="72"><div xmlns="http://www.w3.org/1999/xhtml" style="display: table; white-space: break-spaces; line-height: 1.5; max-width: 200px; text-align: center; width: 200px;"><span class="nodeLabel"><p>Grupo -&gt; Tablon, Personas,<br />Unidades, Tareas, Asistencia, Calificaciones</p></span></div></foreignObject></g></g><g class="node default" id="my-svg-flowchart-plan-28" data-look="classic" transform="translate(1766.859375, 1265.6295776367188)"><rect class="basic label-container" style="" x="-130" y="-39" width="260" height="78"/><g class="label" style="" transform="translate(-100, -24)"><rect/><foreignObject width="200" height="48"><div xmlns="http://www.w3.org/1999/xhtml" style="display: table; white-space: break-spaces; line-height: 1.5; max-width: 200px; text-align: center; width: 200px;"><span class="nodeLabel"><p>Planeaciones (editor tipo Word/Docs + IA)</p></span></div></foreignObject></g></g><g class="node default" id="my-svg-flowchart-biblio-30" data-look="classic" transform="translate(2054.78125, 1265.6295776367188)"><rect class="basic label-container" style="" x="-107.921875" y="-27" width="215.84375" height="54"/><g class="label" style="" transform="translate(-77.921875, -12)"><rect/><foreignObject width="155.84375" height="24"><div xmlns="http://www.w3.org/1999/xhtml" style="display: table-cell; white-space: nowrap; line-height: 1.5; max-width: 200px; text-align: center;"><span class="nodeLabel"><p>Biblioteca / Plantillas</p></span></div></foreignObject></g></g><g class="node default" id="my-svg-flowchart-chat-32" data-look="classic" transform="translate(2613.7421875, 1265.6295776367188)"><rect class="basic label-container" style="" x="-91.0390625" y="-27" width="182.078125" height="54"/><g class="label" style="" transform="translate(-61.0390625, -12)"><rect/><foreignObject width="122.078125" height="24"><div xmlns="http://www.w3.org/1999/xhtml" style="display: table-cell; white-space: nowrap; line-height: 1.5; max-width: 200px; text-align: center;"><span class="nodeLabel"><p>Chat / Contactos</p></span></div></foreignObject></g></g><g class="node default" id="my-svg-flowchart-cuenta-34" data-look="classic" transform="translate(2884.78125, 1265.6295776367188)"><rect class="basic label-container" style="" x="-130" y="-39" width="260" height="78"/><g class="label" style="" transform="translate(-100, -24)"><rect/><foreignObject width="200" height="48"><div xmlns="http://www.w3.org/1999/xhtml" style="display: table; white-space: break-spaces; line-height: 1.5; max-width: 200px; text-align: center; width: 200px;"><span class="nodeLabel"><p>Perfil / Cuenta / Accesibilidad</p></span></div></foreignObject></g></g></g></g></g><defs><filter id="my-svg-drop-shadow" height="130%" width="130%"><feDropShadow dx="4" dy="4" stdDeviation="0" flood-opacity="0.06" flood-color="#000000"/></filter></defs><defs><filter id="my-svg-drop-shadow-small" height="150%" width="150%"><feDropShadow dx="2" dy="2" stdDeviation="0" flood-opacity="0.06" flood-color="#000000"/></filter></defs></svg>